<svg width="49" height="48" viewBox="0 0 49 48" fill="none" xmlns="http://www.w3.org/2000/svg">
<rect width="48" height="48" transform="translate(0.333252)" fill="white"/>
<circle cx="24.3333" cy="24" r="24" fill="#D8D8D8" fill-opacity="0.1"/>
<path d="M24.3333 12C17.7063 12 12.3333 17.4007 12.3333 24.0618C12.3333 30.1088 16.7653 35.1024 22.5393 35.9749V27.2582H19.5703V24.088H22.5393V21.9781C22.5393 18.4852 24.2323 16.9524 27.1203 16.9524C28.5033 16.9524 29.2353 17.0559 29.5813 17.1021V19.8693H27.6113C26.3853 19.8693 25.9573 21.0383 25.9573 22.3551V24.088H29.5503L29.0633 27.2582H25.9573V36C31.8143 35.2019 36.3333 30.1681 36.3333 24.0618C36.3333 17.4007 30.9603 12 24.3333 12Z" fill="#EAEBF1"/>
</svg>
