<svg width="49" height="48" viewBox="0 0 49 48" fill="none" xmlns="http://www.w3.org/2000/svg">
<rect width="48" height="48" transform="translate(0.333252)" fill="white"/>
<circle cx="24.3333" cy="24" r="24" fill="#D8D8D8" fill-opacity="0.1"/>
<path d="M33.4761 12H15.1904C13.6133 12 12.3333 13.28 12.3333 14.8571V33.1429C12.3333 34.72 13.6133 36 15.1904 36H33.4761C35.0533 36 36.3333 34.72 36.3333 33.1429V14.8571C36.3333 13.28 35.0533 12 33.4761 12ZM19.7618 21.1429V32H16.3333V21.1429H19.7618ZM16.3333 17.9829C16.3333 17.1829 17.019 16.5714 18.0475 16.5714C19.0761 16.5714 19.7218 17.1829 19.7618 17.9829C19.7618 18.7829 19.1218 19.4286 18.0475 19.4286C17.019 19.4286 16.3333 18.7829 16.3333 17.9829ZM32.3333 32H28.9047C28.9047 32 28.9047 26.7086 28.9047 26.2857C28.9047 25.1429 28.3333 24 26.9047 23.9771H26.859C25.4761 23.9771 24.9047 25.1543 24.9047 26.2857C24.9047 26.8057 24.9047 32 24.9047 32H21.4761V21.1429H24.9047V22.6057C24.9047 22.6057 26.0075 21.1429 28.2247 21.1429C30.4933 21.1429 32.3333 22.7029 32.3333 25.8629V32Z" fill="#EAEBF1"/>
</svg>
