<svg width="99" height="98" viewBox="0 0 99 98" fill="none" xmlns="http://www.w3.org/2000/svg">
<g id="price-svgrepo-com 1">
<g id="SVGRepo_iconCarrier">
<g id="Layer">
<g id="Group">
<g id="Group_2">
<g id="Group_3">
<g id="Group_4">
<path id="Vector" d="M53.8632 77.69H44.0022V71.238C40.2241 70.9027 36.2911 69.8211 33.6228 68.3468L32.48 67.7148L35.3295 56.6026L37.2351 57.6461C39.0795 58.6561 42.8543 60.3508 47.4106 60.3508C49.766 60.3508 52.1425 59.604 52.1425 57.9352C52.1425 56.8164 51.4235 55.5384 46.2086 53.7764C40.1292 51.7309 33.1487 48.3236 33.1487 40.0665C33.1487 33.6404 37.3958 28.7068 44.3332 26.9313V20.3115H54.1942V26.2263C58.3785 26.5646 61.1246 27.6509 62.8871 28.4801L64.1608 29.0795L61.2913 39.8888L59.3894 38.9764C57.738 38.1837 54.974 36.8568 50.6532 36.8568C49.1581 36.8568 46.6495 37.1276 46.6495 38.9414C46.6495 40.3138 50.3006 41.8213 53.4818 42.9815C62 45.9626 65.6431 50.1601 65.6431 57.0086C65.6431 60.4192 64.4466 63.5134 62.1822 65.9567C60.1357 68.1656 57.2794 69.7421 53.8632 70.5609V77.69ZM47.3775 74.3147H50.488V67.7643L51.8888 67.5227C58.2908 66.4191 62.2678 62.3902 62.2678 57.0085C62.2678 52.5813 60.5807 49.0419 52.3461 46.1599C47.3732 44.3463 43.2742 42.5572 43.2742 38.9414C43.2742 36.3019 45.2128 33.4815 50.6533 33.4815C54.369 33.4815 57.1429 34.3317 59.0641 35.1242L60.165 30.9783C58.4359 30.2998 55.9638 29.6147 52.4562 29.5101L50.819 29.4612V23.6868H47.7085V29.6877L46.3309 29.9452C40.1901 31.093 36.5239 34.8767 36.5239 40.0665C36.5239 44.8962 39.7428 48.0399 47.287 50.5777C51.5629 52.0224 55.5178 53.9134 55.5178 57.9352C55.5178 61.4531 52.3356 63.726 47.4106 63.726C43.3935 63.726 39.9182 62.6063 37.5436 61.5572L36.4149 65.959C38.5852 66.9063 41.9508 67.849 45.7401 67.9621L47.3774 68.0111V74.3147H47.3775Z" fill="#4285F4"/>
</g>
</g>
<g id="Group_5">
<g id="Group_6">
<path id="Vector_2" d="M49.1971 93.7328C24.5316 93.7328 4.46471 73.6659 4.46471 49.0005C4.46471 24.3348 24.5316 4.26786 49.1971 4.26786C73.8628 4.26786 93.9302 24.3348 93.9302 49.0005C93.9302 56.8621 91.8889 64.255 88.3126 70.6815L91.6662 71.5799C95.2628 64.8426 97.3054 57.156 97.3054 49.0005C97.3054 22.4739 75.7241 0.892578 49.1971 0.892578C22.6705 0.892578 1.08948 22.4739 1.08948 49.0005C1.08948 75.5273 22.6705 97.108 49.1971 97.108C57.6245 97.108 65.5513 94.9274 72.4468 91.1044L71.5451 87.739C64.9655 91.5494 57.3317 93.7328 49.1971 93.7328Z" fill="#4285F4"/>
</g>
</g>
<g id="Group_7">
<g id="Group_8">
<path id="Vector_3" d="M90.9646 97.1084C90.5328 97.1084 90.101 96.9436 89.7714 96.6145L81.5866 88.4297L78.9539 93.9007C78.6479 94.537 77.9754 94.916 77.2757 94.8496C76.5732 94.7837 75.9856 94.2874 75.8028 93.606L69.7497 71.0143C69.5938 70.4318 69.7605 69.8103 70.1866 69.3841C70.6132 68.9575 71.2343 68.7912 71.8167 68.9472L94.4081 75.0007C95.0894 75.1834 95.5857 75.7711 95.6516 76.4737C95.7171 77.1762 95.339 77.8458 94.7028 78.1519L89.2317 80.785L97.4165 88.9693C97.733 89.2857 97.9104 89.7151 97.9104 90.1625C97.9104 90.6103 97.7329 91.0392 97.4165 91.3562L92.1582 96.6145C91.8286 96.9436 91.3963 97.1084 90.9646 97.1084ZM81.0978 83.8664C81.5413 83.8664 81.9717 84.0416 82.291 84.3608L90.9646 93.0344L93.8365 90.1625L85.1629 81.4894C84.7763 81.1024 84.6007 80.5524 84.6924 80.0128C84.7843 79.4736 85.1313 79.0126 85.6243 78.7753L89.1394 77.0834L73.7666 72.9642L77.8854 88.3369L79.5768 84.8222C79.814 84.3292 80.2756 83.9822 80.8147 83.8904C80.909 83.8744 81.0036 83.8664 81.0978 83.8664Z" fill="#4285F4"/>
</g>
</g>
</g>
<path id="Vector_4" d="M62.5829 15.928C68.6388 15.928 80.4263 22.5504 80.4263 34.6901C80.4263 35.6222 81.1816 36.3777 82.1139 36.3777C83.0458 36.3777 83.8015 35.6222 83.8015 34.6901C83.8015 28.3711 81.0087 22.5127 75.9378 18.1938C71.9146 14.767 66.6723 12.5527 62.5828 12.5527C61.6509 12.5527 60.8951 13.3083 60.8951 14.2404C60.8951 15.1725 61.651 15.928 62.5829 15.928Z" fill="#4285F4"/>
</g>
</g>
</g>
</g>
</svg>
