<svg width="98" height="98" viewBox="0 0 98 98" fill="none" xmlns="http://www.w3.org/2000/svg">
<g id="webopac-svgrepo-com 1">
<g id="SVGRepo_iconCarrier">
<path id="Vector" d="M18.375 51.9404C18.1319 51.9404 17.8913 51.9886 17.667 52.0822C17.4428 52.1758 17.2393 52.313 17.0684 52.4858C16.8975 52.6586 16.7626 52.8636 16.6714 53.0889C16.5803 53.3142 16.5348 53.5553 16.5375 53.7983V86.9754C16.5375 87.4628 16.7311 87.9301 17.0757 88.2747C17.4203 88.6193 17.8876 88.8129 18.375 88.8129H44.202C44.4451 88.8156 44.6862 88.7701 44.9115 88.679C45.1368 88.5878 45.3418 88.4529 45.5146 88.282C45.6874 88.1111 45.8246 87.9076 45.9182 87.6834C46.0118 87.4591 46.06 87.2185 46.06 86.9754V53.7983C46.06 53.3056 45.8642 52.833 45.5158 52.4846C45.1674 52.1362 44.6948 51.9404 44.202 51.9404H18.375Z" stroke="#4285F4" stroke-width="1.5" stroke-linecap="round" stroke-linejoin="round"/>
<path id="Vector_2" d="M18.375 9.18761C18.1337 9.18761 17.8947 9.23514 17.6718 9.32749C17.4489 9.41983 17.2463 9.55518 17.0757 9.7258C16.905 9.89643 16.7697 10.099 16.6773 10.3219C16.585 10.5449 16.5375 10.7838 16.5375 11.0251V44.2022C16.5348 44.4452 16.5803 44.6864 16.6714 44.9116C16.7626 45.1369 16.8975 45.3419 17.0684 45.5147C17.2393 45.6875 17.4428 45.8247 17.667 45.9183C17.8913 46.0119 18.1319 46.0601 18.375 46.0601H44.202C44.6948 46.0601 45.1674 45.8644 45.5158 45.5159C45.8642 45.1675 46.06 44.6949 46.06 44.2022V11.0251C46.06 10.7821 46.0118 10.5415 45.9182 10.3172C45.8246 10.0929 45.6874 9.88943 45.5146 9.71853C45.3418 9.54764 45.1368 9.41271 44.9115 9.32158C44.6862 9.23045 44.4451 9.18491 44.202 9.18761H41.9766V21.4376L37.8933 17.3543L33.81 21.4376V9.18761H18.375Z" stroke="#4285F4" stroke-width="1.5" stroke-linecap="round" stroke-linejoin="round"/>
<path id="Vector_3" d="M53.7979 51.9404C53.3051 51.9404 52.8325 52.1362 52.4841 52.4846C52.1357 52.833 51.9399 53.3056 51.9399 53.7983V86.9754C51.9399 87.2185 51.9881 87.4591 52.0817 87.6834C52.1754 87.9076 52.3125 88.1111 52.4853 88.282C52.6581 88.4529 52.8631 88.5878 53.0884 88.679C53.3137 88.7701 53.5548 88.8156 53.7979 88.8129H79.6249C80.1123 88.8129 80.5796 88.6193 80.9242 88.2747C81.2688 87.9301 81.4624 87.4628 81.4624 86.9754V53.7983C81.4651 53.5553 81.4196 53.3142 81.3285 53.0889C81.2373 52.8636 81.1024 52.6586 80.9315 52.4858C80.7606 52.313 80.5571 52.1758 80.3329 52.0822C80.1086 51.9886 79.868 51.9404 79.6249 51.9404H77.3791V64.1904L73.2958 60.1071L69.2124 64.1904V51.9404H53.7979Z" stroke="#4285F4" stroke-width="1.5" stroke-linecap="round" stroke-linejoin="round"/>
<path id="Vector_4" d="M53.7979 9.18761C53.5548 9.18491 53.3137 9.23045 53.0884 9.32158C52.8631 9.41271 52.6581 9.54764 52.4853 9.71853C52.3125 9.88943 52.1754 10.0929 52.0817 10.3172C51.9881 10.5415 51.9399 10.7821 51.9399 11.0251V44.2022C51.9399 44.6949 52.1357 45.1675 52.4841 45.5159C52.8325 45.8644 53.3051 46.0601 53.7979 46.0601H79.6249C79.868 46.0601 80.1086 46.0119 80.3329 45.9183C80.5571 45.8247 80.7606 45.6875 80.9315 45.5147C81.1024 45.3419 81.2373 45.1369 81.3285 44.9116C81.4196 44.6864 81.4651 44.4452 81.4624 44.2022V11.0251C81.4624 10.7838 81.4149 10.5449 81.3226 10.3219C81.2302 10.099 81.0949 9.89643 80.9242 9.7258C80.7536 9.55518 80.5511 9.41983 80.3281 9.32749C80.1052 9.23514 79.8662 9.18761 79.6249 9.18761H77.3791V20.0697H69.2124V9.18761H53.7979Z" stroke="#4285F4" stroke-width="1.5" stroke-linecap="round" stroke-linejoin="round"/>
<path id="Vector_5" d="M23.1729 29.9307H39.4449" stroke="#4285F4" stroke-width="1.5" stroke-linecap="round" stroke-linejoin="round"/>
<path id="Vector_6" d="M39.4449 36.9746H23.1729" stroke="#4285F4" stroke-width="1.5" stroke-linecap="round" stroke-linejoin="round"/>
<path id="Vector_7" d="M58.5549 29.9307H74.827" stroke="#4285F4" stroke-width="1.5" stroke-linecap="round" stroke-linejoin="round"/>
<path id="Vector_8" d="M74.827 36.9746H58.5549" stroke="#4285F4" stroke-width="1.5" stroke-linecap="round" stroke-linejoin="round"/>
<path id="Vector_9" d="M74.827 70.376H58.5549" stroke="#4285F4" stroke-width="1.5" stroke-linecap="round" stroke-linejoin="round"/>
<path id="Vector_10" d="M39.4449 70.376H23.1729" stroke="#4285F4" stroke-width="1.5" stroke-linecap="round" stroke-linejoin="round"/>
<path id="Vector_11" d="M39.4449 63.333H23.1729" stroke="#4285F4" stroke-width="1.5" stroke-linecap="round" stroke-linejoin="round"/>
<path id="Vector_12" d="M39.4449 77.4199H23.1729" stroke="#4285F4" stroke-width="1.5" stroke-linecap="round" stroke-linejoin="round"/>
</g>
</g>
</svg>
