<svg width="60" height="40" viewBox="0 0 60 40" fill="none" xmlns="http://www.w3.org/2000/svg">
<path d="M32.7384 19.862V9.96217C32.7384 8.037 31.1979 6.4707 29.3045 6.4707H11.2223C9.32891 6.4707 7.78845 8.037 7.78845 9.96217V19.862C7.78845 21.7872 9.32891 23.3535 11.2223 23.3535H21.0023V26.2262C21.0023 26.4943 21.1612 26.7361 21.4048 26.8387C21.4855 26.8726 21.5702 26.8891 21.6543 26.8891C21.8239 26.8891 21.9907 26.8218 22.1154 26.6949L25.4017 23.3535H29.3045C31.1979 23.3535 32.7384 21.7872 32.7384 19.862ZM25.1317 22.0276C24.9588 22.0276 24.7929 22.0974 24.6707 22.2218L22.3063 24.6258V22.6905C22.3063 22.3244 22.0144 22.0276 21.6543 22.0276H11.2223C10.0479 22.0276 9.09245 21.0561 9.09245 19.862V9.96217C9.09245 8.76809 10.0479 7.79658 11.2223 7.79658H29.3045C30.4789 7.79658 31.4344 8.76809 31.4344 9.96217V19.862C31.4344 21.0561 30.4789 22.0276 29.3045 22.0276H25.1317Z" fill="#4285F4"/>
<path d="M11.9177 10.4585H14.0042C14.3642 10.4585 14.6562 10.3574 14.6562 10.2327C14.6562 10.108 14.3642 10.0068 14.0042 10.0068H11.9177C11.5577 10.0068 11.2657 10.108 11.2657 10.2327C11.2657 10.3574 11.5577 10.4585 11.9177 10.4585Z" fill="#4285F4"/>
<path d="M28.609 10.0068H16.786C16.426 10.0068 16.134 10.108 16.134 10.2327C16.134 10.3574 16.426 10.4585 16.786 10.4585H28.609C28.9691 10.4585 29.261 10.3574 29.261 10.2327C29.261 10.108 28.9691 10.0068 28.609 10.0068Z" fill="#4285F4"/>
<path d="M28.609 12.835H11.9177C11.5577 12.835 11.2657 12.9361 11.2657 13.0608C11.2657 13.1855 11.5577 13.2866 11.9177 13.2866H28.609C28.969 13.2866 29.261 13.1855 29.261 13.0608C29.261 12.9361 28.969 12.835 28.609 12.835Z" fill="#4285F4"/>
<path d="M28.609 15.6631H26.5226C26.1625 15.6631 25.8706 15.7642 25.8706 15.8889C25.8706 16.0137 26.1625 16.1148 26.5226 16.1148H28.609C28.9691 16.1148 29.261 16.0137 29.261 15.8889C29.261 15.7642 28.9691 15.6631 28.609 15.6631Z" fill="#4285F4"/>
<path d="M11.9177 16.1148H23.7407C24.1008 16.1148 24.3927 16.0137 24.3927 15.8889C24.3927 15.7642 24.1008 15.6631 23.7407 15.6631H11.9177C11.5577 15.6631 11.2657 15.7642 11.2657 15.8889C11.2657 16.0137 11.5577 16.1148 11.9177 16.1148Z" fill="#4285F4"/>
<path d="M28.609 18.4922H11.9177C11.5577 18.4922 11.2657 18.5933 11.2657 18.718C11.2657 18.8428 11.5577 18.9439 11.9177 18.9439H28.609C28.969 18.9439 29.261 18.8428 29.261 18.718C29.261 18.5933 28.969 18.4922 28.609 18.4922Z" fill="#4285F4"/>
<path d="M34.8682 16.8218H36.9546C37.3147 16.8218 37.6066 16.7207 37.6066 16.596C37.6066 16.4712 37.3147 16.3701 36.9546 16.3701H34.8682C34.5081 16.3701 34.2162 16.4712 34.2162 16.596C34.2162 16.7207 34.5081 16.8218 34.8682 16.8218Z" fill="#4285F4"/>
<path d="M48.0821 16.8218C48.4422 16.8218 48.7341 16.7207 48.7341 16.596C48.7341 16.4712 48.4422 16.3701 48.0821 16.3701H39.7365C39.3764 16.3701 39.0845 16.4712 39.0845 16.596C39.0845 16.7207 39.3764 16.8218 39.7365 16.8218H48.0821Z" fill="#4285F4"/>
<path d="M34.8682 19.6509H48.0821C48.4421 19.6509 48.7341 19.5498 48.7341 19.4251C48.7341 19.3003 48.4421 19.1992 48.0821 19.1992H34.8682C34.5081 19.1992 34.2162 19.3003 34.2162 19.4251C34.2162 19.5498 34.5081 19.6509 34.8682 19.6509Z" fill="#4285F4"/>
<path d="M48.0822 22.0273H45.9958C45.6357 22.0273 45.3438 22.1285 45.3438 22.2532C45.3438 22.3779 45.6357 22.479 45.9958 22.479H48.0822C48.4422 22.479 48.7342 22.3779 48.7342 22.2532C48.7342 22.1285 48.4422 22.0273 48.0822 22.0273Z" fill="#4285F4"/>
<path d="M34.8682 22.479H43.2138C43.5739 22.479 43.8658 22.3779 43.8658 22.2532C43.8658 22.1285 43.5739 22.0273 43.2138 22.0273H34.8682C34.5081 22.0273 34.2162 22.1285 34.2162 22.2532C34.2162 22.3779 34.5081 22.479 34.8682 22.479Z" fill="#4285F4"/>
<path d="M48.0821 24.8564H30.6955C30.3354 24.8564 30.0435 24.9576 30.0435 25.0823C30.0435 25.207 30.3354 25.3081 30.6955 25.3081H48.0821C48.4422 25.3081 48.7341 25.207 48.7341 25.0823C48.7341 24.9576 48.4422 24.8564 48.0821 24.8564Z" fill="#4285F4"/>
<path d="M48.7775 12.835H34.8682C34.5081 12.835 34.2161 13.1318 34.2161 13.4979C34.2161 13.864 34.5081 14.1608 34.8682 14.1608H48.7775C49.9519 14.1608 50.9074 15.1323 50.9074 16.3264V26.2263C50.9074 27.4203 49.9519 28.3919 48.7775 28.3919H38.3455C37.9854 28.3919 37.6935 28.6887 37.6935 29.0548V30.99L35.3292 28.5861C35.2069 28.4617 35.0411 28.3919 34.8682 28.3919H30.6953C29.521 28.3919 28.5655 27.4203 28.5655 26.2263V25.5191C28.5655 25.153 28.2736 24.8562 27.9135 24.8562C27.5534 24.8562 27.2615 25.153 27.2615 25.5191V26.2263C27.2615 28.1514 28.8019 29.7177 30.6953 29.7177H34.5981L37.8845 33.0592C38.0092 33.186 38.176 33.2534 38.3457 33.2534C38.4296 33.2534 38.5144 33.2369 38.5951 33.2029C38.8387 33.1003 38.9976 32.8585 38.9976 32.5905V29.7177H48.7776C50.671 29.7177 52.2115 28.1514 52.2115 26.2263V16.3264C52.2114 14.4013 50.6709 12.835 48.7775 12.835Z" fill="#4285F4"/>
</svg>
