<svg width="208" height="136" viewBox="0 0 208 136" fill="none" xmlns="http://www.w3.org/2000/svg">
<path d="M113.493 67.5304V33.871C113.493 27.3254 108.153 22 101.589 22H38.9041C32.3403 22 27 27.3254 27 33.871V67.5304C27 74.076 32.3403 79.4014 38.9041 79.4014H72.8081V89.1687C72.8081 90.0802 73.3587 90.9024 74.2035 91.251C74.4831 91.3664 74.7767 91.4227 75.0681 91.4227C75.6564 91.4227 76.2344 91.1936 76.6669 90.7624L88.0592 79.4014H101.589C108.153 79.4014 113.493 74.076 113.493 67.5304ZM87.1232 74.8935C86.5237 74.8935 85.9487 75.1309 85.525 75.5537L77.3287 83.7273V77.1474C77.3287 75.9026 76.3167 74.8935 75.0684 74.8935H38.9041C34.8329 74.8935 31.5205 71.5903 31.5205 67.5304V33.871C31.5205 29.8111 34.8329 26.508 38.9041 26.508H101.589C105.66 26.508 108.972 29.8111 108.972 33.871V67.5304C108.972 71.5903 105.66 74.8935 101.589 74.8935H87.1232Z" fill="#4285F4"/>
<path d="M41.315 35.5572H48.5478C49.7961 35.5572 50.8081 35.2134 50.8081 34.7893C50.8081 34.3653 49.7961 34.0215 48.5478 34.0215H41.315C40.0667 34.0215 39.0547 34.3653 39.0547 34.7893C39.0547 35.2134 40.0667 35.5572 41.315 35.5572Z" fill="#4285F4"/>
<path d="M99.1781 34.0215H58.1919C56.9436 34.0215 55.9316 34.3653 55.9316 34.7893C55.9316 35.2134 56.9436 35.5572 58.1919 35.5572H99.1781C100.426 35.5572 101.438 35.2134 101.438 34.7893C101.438 34.3653 100.426 34.0215 99.1781 34.0215Z" fill="#4285F4"/>
<path d="M99.1779 43.6377H41.315C40.0667 43.6377 39.0547 43.9815 39.0547 44.4056C39.0547 44.8296 40.0667 45.1734 41.315 45.1734H99.1779C100.426 45.1734 101.438 44.8296 101.438 44.4056C101.438 43.9815 100.426 43.6377 99.1779 43.6377Z" fill="#4285F4"/>
<path d="M99.1779 53.2549H91.9451C90.6968 53.2549 89.6848 53.5987 89.6848 54.0227C89.6848 54.4468 90.6968 54.7906 91.9451 54.7906H99.1779C100.426 54.7906 101.438 54.4468 101.438 54.0227C101.438 53.5987 100.426 53.2549 99.1779 53.2549Z" fill="#4285F4"/>
<path d="M41.315 54.7906H82.3012C83.5494 54.7906 84.5614 54.4468 84.5614 54.0227C84.5614 53.5987 83.5494 53.2549 82.3012 53.2549H41.315C40.0667 53.2549 39.0547 53.5987 39.0547 54.0227C39.0547 54.4468 40.0667 54.7906 41.315 54.7906Z" fill="#4285F4"/>
<path d="M99.1779 62.8721H41.315C40.0667 62.8721 39.0547 63.2159 39.0547 63.6399C39.0547 64.064 40.0667 64.4078 41.315 64.4078H99.1779C100.426 64.4078 101.438 64.064 101.438 63.6399C101.438 63.2159 100.426 62.8721 99.1779 62.8721Z" fill="#4285F4"/>
<path d="M120.876 57.1949H128.109C129.358 57.1949 130.37 56.8511 130.37 56.427C130.37 56.003 129.358 55.6592 128.109 55.6592H120.876C119.628 55.6592 118.616 56.003 118.616 56.427C118.616 56.8511 119.628 57.1949 120.876 57.1949Z" fill="#4285F4"/>
<path d="M166.685 57.1949C167.933 57.1949 168.945 56.8511 168.945 56.427C168.945 56.003 167.933 55.6592 166.685 55.6592H137.753C136.505 55.6592 135.493 56.003 135.493 56.427C135.493 56.8511 136.505 57.1949 137.753 57.1949H166.685Z" fill="#4285F4"/>
<path d="M120.876 66.8121H166.685C167.933 66.8121 168.945 66.4683 168.945 66.0442C168.945 65.6202 167.933 65.2764 166.685 65.2764H120.876C119.628 65.2764 118.616 65.6202 118.616 66.0442C118.616 66.4683 119.628 66.8121 120.876 66.8121Z" fill="#4285F4"/>
<path d="M166.685 74.8936H159.452C158.204 74.8936 157.192 75.2373 157.192 75.6614C157.192 76.0855 158.204 76.4293 159.452 76.4293H166.685C167.933 76.4293 168.945 76.0855 168.945 75.6614C168.945 75.2373 167.933 74.8936 166.685 74.8936Z" fill="#4285F4"/>
<path d="M120.876 76.4293H149.808C151.056 76.4293 152.068 76.0855 152.068 75.6614C152.068 75.2373 151.056 74.8936 149.808 74.8936H120.876C119.628 74.8936 118.616 75.2373 118.616 75.6614C118.616 76.0855 119.628 76.4293 120.876 76.4293Z" fill="#4285F4"/>
<path d="M166.685 84.5107H106.411C105.163 84.5107 104.151 84.8545 104.151 85.2786C104.151 85.7027 105.163 86.0465 106.411 86.0465H166.685C167.933 86.0465 168.945 85.7027 168.945 85.2786C168.945 84.8545 167.933 84.5107 166.685 84.5107Z" fill="#4285F4"/>
<path d="M169.095 43.6377H120.876C119.628 43.6377 118.616 44.6469 118.616 45.8917C118.616 47.1365 119.628 48.1457 120.876 48.1457H169.095C173.167 48.1457 176.479 51.4488 176.479 55.5087V89.1681C176.479 93.228 173.167 96.5311 169.095 96.5311H132.931C131.683 96.5311 130.671 97.5403 130.671 98.7851V105.365L122.475 97.1914C122.051 96.7686 121.476 96.5311 120.876 96.5311H106.411C102.339 96.5311 99.0271 93.228 99.0271 89.1681V86.7639C99.0271 85.5191 98.0151 84.5099 96.7669 84.5099C95.5186 84.5099 94.5066 85.5191 94.5066 86.7639V89.1681C94.5066 95.7137 99.8469 101.039 106.411 101.039H119.94L131.333 112.4C131.765 112.831 132.344 113.06 132.932 113.06C133.223 113.06 133.517 113.004 133.796 112.889C134.641 112.54 135.192 111.718 135.192 110.806V101.039H169.096C175.66 101.039 181 95.7137 181 89.1681V55.5087C181 48.9631 175.659 43.6377 169.095 43.6377Z" fill="#4285F4"/>
</svg>
