<svg width="98" height="98" viewBox="0 0 98 98" fill="none" xmlns="http://www.w3.org/2000/svg">
<g id="hotel-staff-svgrepo-com 1" clip-path="url(#clip0_10_3175)">
<g id="SVGRepo_iconCarrier">
<path id="XMLID_66_" d="M61.5434 62.8263H63.7711C64.8043 62.8263 65.642 63.664 65.642 64.6972C65.642 65.7303 64.8043 66.568 63.7711 66.568H61.5434C60.5102 66.568 59.6726 65.7303 59.6726 64.6972C59.6726 63.664 60.5102 62.8263 61.5434 62.8263ZM28.484 25.3368C28.484 22.9791 28.8921 20.6545 29.6715 18.4631C29.6994 18.3593 29.7363 18.2571 29.7829 18.1577C30.5167 16.1928 31.5513 14.3402 32.8595 12.6738V1.87084C32.8595 0.837669 33.6971 0 34.7303 0H63.2992C64.3324 0 65.17 0.837669 65.17 1.87084V12.711C67.9777 16.3055 69.5158 20.7595 69.5158 25.3366C69.5158 32.8541 65.4025 39.5987 59.1455 43.1703L58.5012 46.4677C58.3267 47.3606 57.544 47.98 56.6671 47.98C56.548 47.98 56.4276 47.9686 56.3062 47.945C55.2922 47.7469 54.6307 46.7642 54.829 45.75L54.9824 44.9652C54.3346 45.1623 53.673 45.3281 52.9979 45.4617C51.9841 45.6616 51.0003 45.0026 50.7999 43.9891C50.5995 42.9755 51.2589 41.9915 52.2725 41.7911C60.0959 40.2451 65.7741 33.3248 65.7741 25.3368C65.7741 22.1332 64.8525 19.0033 63.1474 16.3252C59.5566 20.0121 54.3563 22.7796 48.7859 23.8958C42.9075 25.0737 37.1512 24.3293 32.5903 21.8633C32.3494 22.9987 32.2257 24.1628 32.2257 25.3368C32.2257 33.3251 37.9039 40.2451 45.7273 41.7911C46.7409 41.9912 47.4003 42.9753 47.1999 43.9891C46.9995 45.0028 46.014 45.6616 45.0019 45.4617C44.3265 45.3281 43.6647 45.1621 43.0172 44.9652L43.1706 45.7502C43.3687 46.7642 42.7073 47.7469 41.6931 47.945C40.6796 48.1435 39.6964 47.4817 39.4984 46.4675L38.8543 43.1703C32.5975 39.5987 28.484 32.8543 28.484 25.3368ZM36.6011 11.4647H61.4284V3.74168H36.6011V11.4647ZM33.797 18.2512C41.4326 22.8687 52.2961 20.5898 58.845 15.2064H35.6311C34.9104 16.1573 34.2965 17.1785 33.797 18.2512ZM72.7795 56.9243V81.2522C72.7795 81.9732 72.3653 82.6301 71.7145 82.9407L56.9433 89.9909L57.0232 91.1604C57.0649 91.7696 56.8064 92.3611 56.3313 92.7443L50.328 97.5854C49.9861 97.8611 49.57 97.9998 49.1535 97.9998C49.1023 97.9998 49.0511 97.9977 49.0001 97.9935C48.5334 98.032 48.0563 97.895 47.6723 97.5852L41.6685 92.7441C41.1931 92.3608 40.9347 91.7694 40.9763 91.16L41.0563 89.9902L26.2856 82.9402C25.6347 82.6297 25.2206 81.9727 25.2206 81.2518V56.9238C25.2206 56.2143 25.6219 55.5661 26.2568 55.2494L35.6685 50.5569C35.9276 50.4276 36.2136 50.3605 36.5032 50.3605H41.5425L44.197 48.0981C44.5354 47.8098 44.9657 47.6512 45.4105 47.6512H52.5896C53.0344 47.6512 53.4647 47.8098 53.8031 48.0981L56.4578 50.3607L61.4973 50.3605C61.7871 50.3605 62.0729 50.4278 62.3322 50.5569L71.7435 55.2494C72.3784 55.5665 72.7795 56.2148 72.7795 56.9243ZM43.175 59.0288L41.0177 57.1902C40.6005 56.8347 40.3604 56.3142 40.3604 55.7662V54.1024H36.9435L28.962 58.0819V80.072L41.3309 85.9756L43.175 59.0288ZM53.2238 90.4435L53.1258 89.0108C53.1239 88.9889 53.1225 88.9671 53.1214 88.9454L51.2164 61.1045H46.7832L44.8791 88.9264C44.8777 88.9608 44.8754 88.9949 44.8721 89.0296L44.7753 90.4432L48.9997 93.8493L53.2238 90.4435ZM53.898 53.0956L51.9004 51.3932H46.0994L44.1018 53.0956V54.9026L46.3101 56.7847C46.3155 56.7891 46.3209 56.7938 46.326 56.7983L46.9887 57.363H51.0104L53.8978 54.9026L53.898 53.0956ZM69.0378 58.0819L61.0568 54.1024H57.6394V55.7662C57.6394 56.3144 57.3993 56.8347 56.9821 57.1902L54.8248 59.0285L56.6685 85.9756L69.0378 80.0717V58.0819Z" fill="#4285F4"/>
</g>
</g>
<defs>
<clipPath id="clip0_10_3175">
<rect width="98" height="98" fill="white"/>
</clipPath>
</defs>
</svg>
