<svg width="99" height="98" viewBox="0 0 99 98" fill="none" xmlns="http://www.w3.org/2000/svg">
<g id="blog-svgrepo-com 1" clip-path="url(#clip0_10_3189)">
<g id="SVGRepo_iconCarrier">
<path id="Vector" d="M90.3333 31.287L94.4166 27.2036V73.5005H65.8333V92.8759L46.4578 73.5005H4.58325V8.16714H73.0322L68.9488 12.2505H8.66659V69.4171H48.1443L61.7499 83.0187V69.4171H90.3333V31.287ZM97.0993 10.0863C97.4859 10.4453 97.7964 10.8783 98.0124 11.3596C98.2285 11.8409 98.3457 12.3607 98.3572 12.8881C98.3686 13.4155 98.274 13.9399 98.079 14.4301C97.8839 14.9203 97.5925 15.3663 97.2218 15.7417L59.1448 53.8147L42.4153 60.981C42.1371 61.1 41.8297 61.1329 41.5326 61.0756C41.2355 61.0182 40.9624 60.8733 40.7484 60.6593C40.5345 60.4454 40.3895 60.1722 40.3322 59.8751C40.2748 59.578 40.3078 59.2706 40.4268 58.9924L47.593 42.263L85.6088 4.25122C86.3591 3.50192 87.3762 3.08105 88.4365 3.08105C89.4969 3.08105 90.514 3.50192 91.2643 4.25122L97.0993 10.0863ZM55.8577 50.7767L50.631 45.5501L46.7069 54.6967L55.8577 50.7767ZM85.4333 21.7442L79.6594 15.9745L53.2443 42.3936L59.0182 48.1634L85.4333 21.7442ZM93.0487 11.7605L89.7657 8.33864C89.6076 8.17406 89.4183 8.04267 89.2089 7.95217C88.9994 7.86167 88.774 7.81388 88.5458 7.8116C88.3177 7.80932 88.0913 7.85259 87.8801 7.93888C87.6689 8.02517 87.477 8.15275 87.3157 8.31414L82.5463 13.0835L88.3202 18.8614L93.0242 14.1574C93.3405 13.8402 93.5201 13.4118 93.5247 12.9639C93.5293 12.516 93.3584 12.0841 93.0487 11.7605Z" fill="#4285F4"/>
</g>
</g>
<defs>
<clipPath id="clip0_10_3189">
<rect width="98" height="98" fill="white" transform="translate(0.5)"/>
</clipPath>
</defs>
</svg>
