<svg width="184" height="61" viewBox="0 0 184 61" fill="none" xmlns="http://www.w3.org/2000/svg">
<g id="Group">
<path id="Vector" d="M70.3655 53.1239C63.5472 48.709 54.2938 47.9343 39.3709 52.096C23.4619 55.8538 18.1576 58.2627 11.1916 53.4269C8.51537 51.0514 7.55589 47.2265 8.27235 41.7171C9.9341 32.7357 14.4248 24.0926 22.4016 14.5053C26.8539 9.51798 30.9841 5.23797 36.4375 3.51929C40.6171 2.44111 40.2264 5.74287 39.7207 6.21508C39.187 6.21508 38.2905 6.29957 37.5976 6.75405C37.0353 7.19241 35.4917 8.60788 35.4088 10.5119C35.2893 13.4266 38.29 12.82 39.5844 11.2196C40.9795 9.41622 43.0414 5.96274 41.4195 2.7441C40.7397 1.59846 39.5651 0.806693 38.1068 0.537091C33.1131 0.250222 28.4625 2.64302 24.1701 5.28839C14.7833 11.8429 7.27439 20.9251 3.02555 30.8665C0.576108 36.8647 -1.63924 45.457 1.68127 52.4503C4.25027 57.3027 9.5832 59.8801 15.9459 59.3411C20.4085 58.8698 25.8046 57.4201 29.4339 56.5447C33.0634 55.6678 51.641 49.2489 57.7451 60.4209C57.7451 60.4209 59.775 56.4602 64.8477 56.3757C69.0182 55.9889 75.0348 57.5893 79.4161 60.8238C77.9563 58.6173 73.8179 55.3652 70.3655 53.1239Z" fill="#42527B"/>
<path id="Vector_2" d="M41.2649 15.6344C37.7902 13.3429 30.8065 17.7237 25.2129 25.2383C20.0978 31.9788 17.8891 39.8129 20.293 43.4356C23.8684 47.6983 30.5065 41.498 33.3293 38.1792L33.6935 37.7912C35.6131 35.7187 37.096 33.2248 38.5316 30.8318C38.5316 30.8318 39.851 28.6413 39.9139 28.54C40.7293 28.389 41.7115 28.153 42.8183 27.8328C42.8025 27.8829 38.5839 35.0105 39.0142 38.5482C39.1482 39.6275 39.0461 43.5703 42.8755 44.7663C47.9796 45.6262 52.0553 41.6492 55.6509 38.1108C55.6509 38.1108 56.2636 37.5216 56.6102 37.1852C56.5224 37.538 56.4081 38.0088 56.4081 38.0088C54.9138 43.2323 56.9281 44.3284 58.1881 44.7327C61.996 45.8457 66.5451 40.2849 66.56 40.2849C66.4418 42.0365 66.0971 43.4853 67.9341 44.6482C69.6677 45.2721 71.4225 44.3208 72.7565 43.4278C77.5607 40.0245 81.4312 34.6974 84.5573 30.0929H82.5632C82.5396 30.0929 77.6427 37.2274 74.4629 38.778C74.4578 38.778 73.879 39.0766 73.5458 38.8404C73.1328 38.4865 73.2956 37.7505 73.5506 37.2292C73.5666 37.1954 85.8285 15.8186 85.8285 15.8186H80.039C80.039 15.8186 79.4066 16.847 79.3551 16.9145C79.3162 16.8809 79.2234 16.704 79.1593 16.6193C75.5724 11.632 67.4496 19.3034 61.3343 28.1995C58.9799 31.6203 55.9823 35.4719 52.8742 38.2519C52.8742 38.2519 48.2694 42.4946 46.3021 39.4464C45.5829 38.1656 45.8041 36.2931 46.2098 35.0634C48.5005 28.5087 52.4477 22.5602 56.9395 18.9711C58.2073 17.9777 59.5857 17.6903 60.2694 18.1117C60.9213 18.4998 61.0264 19.4594 60.6142 20.1168C59.5681 20.0831 58.7298 20.4027 58.0486 21.1104C56.7064 22.5259 56.24 23.891 56.6667 25.1717C58.7399 28.1371 62.8744 22.2733 62.6744 18.7013C62.603 17.4205 61.9234 16.2077 60.9087 15.6173C59.3968 14.7079 57.0903 14.9434 55.5975 15.6684C53.5991 16.4264 50.4362 19.0715 48.5898 21.1275C46.2654 23.7059 42.2789 26.5699 41.0324 26.2492C41.4399 25.1538 44.8071 18.2289 41.2649 15.6344ZM69.1769 25.8788C70.3031 24.3121 73.581 20.1163 74.3802 19.4088C77.0678 17.0321 78.1421 18.0778 78.2351 18.8187C75.7268 23.3343 72.7663 28.5073 69.9829 33.158C69.9886 33.1414 69.1118 34.489 69.1118 34.489C67.8825 36.3755 66.6448 37.9934 64.6257 39.122C64.3378 39.2069 63.8632 39.2408 63.5473 39.0038C63.1671 38.7511 63.0171 38.3297 63.0599 37.8916C63.1811 36.443 64.6484 32.0124 69.1769 25.8788ZM37.6816 28.5914C37.6816 28.5914 37.631 28.7436 37.6063 28.7933C37.5999 28.7933 35.0819 32.9209 35.0819 32.9209C33.5624 34.9601 31.6652 37.5218 29.2937 38.7513C28.5907 38.987 27.6189 39.1392 27.1237 38.5162C26.0739 37.2522 26.615 35.4997 27.0545 34.0847L27.2102 33.5791C28.4705 30.1422 30.4698 27.1087 32.4163 24.2948C32.4406 24.2782 32.4951 24.2614 32.5148 24.2614C32.5196 24.2782 32.5274 24.2782 32.5306 24.3121C33.7519 26.6705 36.0419 27.7653 37.7545 28.2716C37.7648 28.2716 37.776 28.2884 37.776 28.3222C37.7762 28.3724 37.7483 28.4403 37.6816 28.5914ZM40.0669 23.7224C40.0557 23.756 38.9455 26.3171 38.9455 26.3171C38.785 26.4518 38.5312 26.3846 38.2403 26.3171L37.7419 26.2324C36.1768 25.7441 34.9963 24.6993 34.6323 23.4526C34.1305 21.0262 36.1926 19.1222 37.101 18.4317C37.9728 17.8246 39.328 17.5045 40.115 18.1282C40.6004 18.7013 40.7843 19.4424 40.7843 20.2517C40.7846 21.3464 40.4483 22.5763 40.0669 23.7224ZM113.257 31.54C112.699 30.3271 111.374 29.5519 109.961 29.6359C105.375 30.0575 100.889 33.8485 98.5335 39.2905C97.2976 42.0878 96.623 44.3959 96.1807 48.069C97.607 46.4182 100.516 43.7056 103.817 42.2227C103.817 42.2227 104.266 38.7013 106.557 35.5672C107.423 34.2694 109.158 32.1802 111.105 32.736C112.807 33.3091 112.209 38.044 109.947 42.6261C108.274 45.9965 105.713 49.3673 103.122 51.6919C100.831 53.6464 97.4421 56.0053 94.4769 54.1858C92.6092 53.0742 91.6566 50.7482 91.8577 47.7492C92.7501 39.2405 96.6036 31.9951 102.118 23.739C107.804 16.0725 114.071 8.20386 122.515 4.00766C124.237 3.13162 125.832 2.92948 127.211 3.46868C127.211 3.46868 119.285 7.84954 115.506 15.9544C114.545 18.0104 113.209 20.7897 114.555 23.25C115.258 24.5303 116.507 24.6316 117.513 24.5642C122.144 23.4855 125.136 19.1385 127.58 15.1624C128.998 12.1464 130.258 9.14713 130.258 5.81083C130.258 5.40655 130.237 4.86757 130.203 4.46282C132.415 3.28381 136.952 5.3727 136.952 5.3727C140.498 6.55264 148.047 12.366 150.594 13.4776C151.836 12.0287 153.877 9.83851 155.027 8.74307L153.363 7.71508C150.699 6.08067 147.883 4.53028 145.112 2.99717C138.818 -0.456545 133.694 0.756318 131.087 1.70004C130.062 2.07048 129.126 2.39074 129.126 2.39074C127.191 0.267766 124.017 0.469449 121.679 1.04273C113.27 3.46891 105.462 9.38288 97.0917 19.6446C90.9376 27.682 87.1203 34.6241 85.0857 41.4816C83.5174 46.0982 83.0407 52.8885 86.8686 56.9157C90.1231 60.3353 94.4386 59.5944 97.4859 58.365C104.089 55.0961 110.023 48.0527 112.98 39.9478C113.694 37.5387 114.486 34.1351 113.257 31.54ZM128.44 6.14812C127.566 16.2242 119.774 22.1389 117.846 22.6099C116.677 22.8455 114.684 22.3235 116.464 18.0949C119.084 12.3992 123.559 7.56382 128.36 5.08675C128.477 5.50808 128.474 5.77699 128.44 6.14812ZM174.661 7.42821C170.47 9.82125 166.125 11.3709 160.866 10.832C159.408 12.4836 157.989 14.1853 156.681 15.9374C164.063 17.8246 171.888 13.6291 176.253 9.63614C180.871 5.60892 183.238 0.537598 183.238 0.537598C183.238 0.537598 179.777 4.51371 174.661 7.42821ZM95.4505 15.819H89.9525L86.8512 20.8841H92.3481L95.4505 15.819Z" fill="#42527B"/>
<path id="Vector_3" d="M160.844 53.5924C160.253 53.9967 159.422 53.6859 159.733 52.7594C160.506 50.4004 163.581 45.5932 163.581 45.5932L172.147 30.3228H166.28C166.001 30.7833 165.405 31.8405 165.405 31.8405C165.133 31.386 164.321 30.3755 163.987 30.1571C162.554 29.2465 160.451 29.677 159 30.5024C152.692 34.2098 148.09 41.5347 144.461 47.247C144.461 47.247 140.64 53.5968 138.519 54.069C136.863 54.2039 137.034 51.9619 137.106 51.4395C137.746 47.6646 139.233 44.076 140.73 40.8239C143.777 38.701 147.254 35.9209 150.414 32.8713C157.271 26.2825 163.052 18.8181 163.897 17.1501C163.897 17.1501 162.982 17.3357 161.902 17.369C156.627 24.7659 145.831 35.5164 142.558 37.1167C144.008 33.6112 153.376 16.8803 161.347 8.87694L162.602 7.66339C164.542 5.75937 166.551 3.80493 168.118 3.48468C168.283 3.46787 168.496 3.48468 168.68 3.87285C168.75 5.35531 168.201 6.45076 167.571 7.69746L166.688 9.51745C166.688 9.51745 167.938 9.28146 168.76 9.01117C169.712 7.20914 170.768 5.18655 170.379 2.77763C170.249 2.00244 169.691 1.41282 168.961 1.2779C166.583 0.822964 163.992 2.59161 161.906 4.02434L161.822 4.07453C151.102 12.5162 142.05 24.6817 134.136 41.2955C133.563 41.7329 131.347 42.2558 130.97 42.0027C131.752 40.3856 132.736 38.2115 133.228 35.8525C133.313 35.1782 133.392 34.488 133.392 33.8141C133.392 32.3638 133.046 30.9995 131.754 30.0564C130.238 29.2981 128.366 29.6522 127.103 30.2245C121.446 32.5835 117.218 38.4139 114.167 43.2154C112.526 46.2659 110.89 49.5332 110.437 53.2744C110.117 56.2057 110.767 58.0932 112.425 59.0369C114.13 59.9125 116.277 59.0024 117.12 58.5647C122.851 55.5316 126.855 49.4494 130.011 43.8888C130.137 43.8722 131.86 43.822 133.164 43.4845C133.181 43.4845 133.189 43.4845 133.217 43.502C133.143 43.7539 132.469 45.7765 132.469 45.7765C130.469 51.6732 129.544 55.6838 131.433 58.0593C134.133 61.4124 138.604 57.9419 142.241 53.358C141.46 58.8507 144.292 59.7106 146.451 59.2897C148.931 58.616 151.694 55.9532 152.977 54.5888C152.565 56.1892 152.677 59.0542 154.933 59.3401C156.479 59.6275 157.636 58.782 158.975 58.0573C163.778 55.4285 169.527 46.6688 171.02 44.1363H169.063C166.941 47.3602 164.24 51.5864 160.844 53.5924ZM117.733 53.0057C117.428 52.5506 117.327 52.0533 117.317 51.5155C117.259 48.2114 120.795 42.2949 123.291 39.0716H123.296C124.342 41.374 126.711 42.8539 128.141 43.4776C126.365 47.4544 120.274 55.9711 117.733 53.0057ZM129.144 41.6997C128.975 41.8185 125.988 40.8069 125.41 38.0269C124.92 35.6334 126.56 33.7632 128.147 32.8206C128.828 32.281 129.853 32.0963 130.606 32.3648C131.304 32.8374 131.493 33.6805 131.493 34.5888C131.493 35.146 131.42 35.7183 131.355 36.2405L131.341 36.3588C130.84 38.2269 130.102 40.0221 129.144 41.6997ZM153.101 51.9444C153.099 51.9444 152.534 52.4497 152.534 52.4497C151.729 53.174 150.9 53.949 149.899 53.5613C149.622 53.4605 149.428 53.09 149.381 52.8027C149.335 50.7301 150.264 48.8098 151.164 46.9396L151.395 46.4508C153.985 42.1038 156.996 36.9816 161.417 33.4268C162.162 32.8865 162.971 32.4324 163.824 32.7865C164.021 32.9716 164.249 33.2919 164.249 33.6117C164.249 33.7132 164.16 33.9826 164.108 34.0666C162.873 36.0726 161.697 38.1783 160.553 40.2002C158.318 44.1936 156 48.321 153.101 51.9444Z" fill="#42527B"/>
</g>
</svg>
