<svg width="305" height="61" viewBox="0 0 305 61" fill="none" xmlns="http://www.w3.org/2000/svg">
<path d="M157.02 29.8072C154.5 29.8072 152.686 30.6321 150.844 31.4719V50.4916C152.61 50.6643 153.615 50.6643 155.292 50.6643C161.338 50.6643 162.165 47.8952 162.165 44.0353V34.9491C162.165 32.098 161.219 29.8072 157.02 29.8072ZM116.875 28.7686C112.68 28.7686 111.726 31.0694 111.726 33.918V35.5168H122.023V33.918C122.022 31.0681 121.064 28.7686 116.875 28.7686ZM39.1081 48.5672C39.1081 50.8183 40.1711 51.9898 42.5205 51.9898C45.0413 51.9898 46.5314 51.1699 48.3717 50.3239V45.8155H42.8607C40.253 45.8168 39.1081 46.2988 39.1081 48.5672ZM196.072 29.8072C191.871 29.8072 190.415 32.098 190.415 34.9466V45.3559C190.415 48.2157 191.871 50.509 196.072 50.509C200.26 50.509 201.728 48.2132 201.728 45.3559V34.9466C201.727 32.098 200.26 29.8072 196.072 29.8072ZM18.5197 60.2337H6.17416V30.3725H0.00012207V20.08H6.17416V13.902C6.17416 5.50649 9.65854 0.513672 19.5529 0.513672H27.7957V10.8062H22.6474C18.7929 10.8062 18.5371 12.2448 18.5371 14.9281L18.5197 20.0787H27.8553L26.7625 30.3712H18.5197V60.2337ZM60.7259 60.3107H50.4342L49.9922 57.7094C45.2909 60.3108 41.0962 60.7331 38.3295 60.7331C30.7796 60.7331 26.7638 55.6956 26.7638 48.7287C26.7638 40.5109 31.4502 37.5753 39.837 37.5753H48.3729V35.7988C48.3729 31.6011 47.8911 30.3712 41.4339 30.3712H30.874L31.9072 20.0787H43.4481C57.6191 20.0787 60.7259 24.5547 60.7259 35.8821V60.3107ZM95.7237 31.1278C89.32 30.0296 87.4797 29.7886 84.4001 29.7886C78.8643 29.7886 77.1905 31.0098 77.1905 35.7044V44.5894C77.1905 49.2853 78.8643 50.5102 84.4001 50.5102C87.4797 50.5102 89.32 50.268 95.7237 49.166V59.2014C90.1122 60.4611 86.4589 60.7903 83.3719 60.7903C70.1112 60.7903 64.8449 53.8247 64.8449 43.7595V36.5492C64.8449 26.4791 70.1112 19.4986 83.3719 19.4986C86.4589 19.4986 90.1147 19.8327 95.7237 21.0912V31.1278ZM134.369 43.7595H111.725V44.5894C111.725 49.2853 113.399 50.5102 118.932 50.5102C123.909 50.5102 126.944 50.268 133.337 49.166V59.2014C127.173 60.4611 123.961 60.7903 117.909 60.7903C104.649 60.7903 99.377 53.8247 99.377 43.7595V35.5156C99.377 26.7126 103.291 19.4986 116.876 19.4986C130.463 19.4986 134.37 26.6269 134.37 35.5156L134.369 43.7595ZM174.512 43.9484C174.512 53.6756 171.731 60.7704 154.876 60.7704C148.794 60.7704 145.219 60.2337 138.5 59.2001V3.60328L150.844 1.54727V20.9931C153.51 20.0017 156.966 19.4998 160.109 19.4998C172.457 19.4998 174.513 25.0318 174.513 33.9155L174.512 43.9484ZM214.087 44.1608C214.087 52.5513 210.619 60.6909 196.113 60.6909C181.598 60.6909 178.066 52.5513 178.066 44.1608V36.0597C178.066 27.6667 181.598 19.5259 196.113 19.5259C210.619 19.5259 214.087 27.6667 214.087 36.0597V44.1608ZM253.628 44.1608C253.628 52.5513 250.158 60.6909 235.656 60.6909C221.142 60.6909 217.607 52.5513 217.607 44.1608V36.0597C217.607 27.6667 221.142 19.5259 235.656 19.5259C250.158 19.5259 253.628 27.6667 253.628 36.0597V44.1608ZM294.217 60.2337H280.832L269.516 41.3619V60.2337H257.17V3.60328L269.516 1.54727V38.0039L280.832 20.08H294.217L281.86 39.6388L294.217 60.2337ZM235.614 29.8072C231.421 29.8072 229.965 32.098 229.965 34.9466V45.3559C229.965 48.2157 231.421 50.509 235.614 50.509C239.803 50.509 241.284 48.2132 241.284 45.3559V34.9466C241.284 32.098 239.803 29.8072 235.614 29.8072ZM301.265 53.1923C303.344 53.1923 305 54.8856 305 57C305 59.148 303.344 60.8238 301.248 60.8238C299.168 60.8238 297.476 59.1467 297.476 57C297.476 54.8856 299.168 53.1923 301.248 53.1923H301.265ZM301.245 53.7849C299.572 53.7849 298.201 55.2235 298.201 57.0025C298.201 58.8125 299.572 60.2362 301.265 60.2362C302.955 60.2536 304.308 58.8125 304.308 57.0186C304.308 55.226 302.955 53.7849 301.265 53.7849H301.245ZM300.535 59.22H299.86V54.9688C300.214 54.9179 300.552 54.8695 301.059 54.8695C301.704 54.8695 302.125 55.0024 302.38 55.19C302.633 55.3776 302.766 55.6645 302.766 56.0708C302.766 56.6286 302.397 56.9677 301.942 57.1044V57.1379C302.313 57.2062 302.568 57.5404 302.649 58.1665C302.751 58.8287 302.853 59.0834 302.921 59.22H302.211C302.109 59.0858 302.005 58.6933 301.924 58.138C301.822 57.5938 301.553 57.3901 301.008 57.3901H300.536V59.22H300.535ZM300.535 56.8658H301.026C301.582 56.8658 302.057 56.6621 302.057 56.1379C302.057 55.7627 301.785 55.3912 301.026 55.3912C300.805 55.3912 300.65 55.4099 300.535 55.4248V56.8658Z" fill="#42527B"/>
</svg>
