<svg width="201" height="61" viewBox="0 0 201 61" fill="none" xmlns="http://www.w3.org/2000/svg">
<path id="Vector" d="M30.1426 0.513672C13.4957 0.513672 0.00012207 14.0145 0.00012207 30.6682C0.00012207 47.3237 13.4957 60.8238 30.1426 60.8238C46.7902 60.8238 60.2851 47.3237 60.2851 30.6682C60.2851 14.0155 46.7909 0.515111 30.1422 0.515111L30.1426 0.513672ZM43.9657 44.0052C43.4244 44.8935 42.2675 45.1719 41.3824 44.6306C34.3042 40.3027 25.395 39.3251 14.9027 41.7229C13.8916 41.9548 12.8838 41.3207 12.6535 40.3096C12.422 39.2981 13.053 38.2898 14.0666 38.0594C25.5487 35.4333 35.3977 36.5636 43.3427 41.4204C44.2281 41.9642 44.5089 43.1201 43.9654 44.0059L43.9657 44.0052ZM47.6551 35.7955C46.9734 36.9021 45.5271 37.2492 44.4225 36.5697C36.322 31.5882 23.97 30.1454 14.3866 33.0556C13.1437 33.4312 11.831 32.7304 11.4538 31.4892C11.0794 30.2458 11.7802 28.9351 13.0209 28.557C23.9678 25.2341 37.5764 26.8437 46.8809 32.5637C47.9859 33.2443 48.335 34.6919 47.6547 35.7959L47.6551 35.7955ZM47.9719 27.2456C38.2556 21.473 22.2289 20.9422 12.9536 23.7585C11.4642 24.2104 9.88909 23.3692 9.43773 21.8791C8.98636 20.3884 9.82646 18.8137 11.317 18.3607C21.9644 15.1271 39.6644 15.7519 50.8492 22.3944C52.1889 23.1899 52.6284 24.9208 51.8344 26.2593C51.0425 27.5995 49.3076 28.0413 47.9722 27.2456H47.9719ZM82.0078 28.3518C76.8034 27.1102 75.8769 26.2388 75.8769 24.4077C75.8769 22.6778 77.5049 21.5137 79.9259 21.5137C82.2727 21.5137 84.5997 22.3977 87.0394 24.2176C87.1132 24.2727 87.2057 24.2946 87.2968 24.2802C87.3878 24.2666 87.4685 24.2165 87.5217 24.1412L90.0629 20.5576C90.1673 20.41 90.1388 20.2066 89.9981 20.0938C87.0945 17.763 83.8248 16.6298 80.003 16.6298C74.3836 16.6298 70.4584 20.0034 70.4584 24.8305C70.4584 30.0067 73.8444 31.8396 79.6956 33.2544C84.6757 34.402 85.5162 35.3634 85.5162 37.0821C85.5162 38.9866 83.8165 40.1706 81.0814 40.1706C78.0435 40.1706 75.5656 39.1469 72.7937 36.7454C72.725 36.686 72.6307 36.659 72.5436 36.6641C72.4518 36.6716 72.3679 36.7141 72.3096 36.7843L69.4603 40.1767C69.3408 40.3175 69.3559 40.5278 69.4942 40.6495C72.7192 43.5299 76.6858 45.0513 80.9662 45.0513C87.0214 45.0513 90.9344 41.7413 90.9344 36.6183C90.9452 32.2937 88.3572 29.8991 82.0187 28.3564L82.0078 28.3518ZM104.634 23.2169C102.009 23.2169 99.8562 24.2511 98.0809 26.3702V23.9849C98.0809 23.7966 97.9283 23.6432 97.7404 23.6432H93.0803C92.8921 23.6432 92.7398 23.7966 92.7398 23.9849V50.4882C92.7398 50.6765 92.892 50.8299 93.0803 50.8299H97.7404C97.9283 50.8299 98.0809 50.6765 98.0809 50.4882V42.1222C99.8565 44.1157 102.01 45.0898 104.634 45.0898C109.51 45.0898 114.447 41.334 114.447 34.1546C114.455 26.9733 109.516 23.2165 104.639 23.2165L104.634 23.2169ZM109.029 34.1546C109.029 37.8106 106.777 40.3618 103.554 40.3618C100.368 40.3618 97.964 37.6946 97.964 34.1546C97.964 30.6149 100.368 27.9474 103.554 27.9474C106.725 27.947 109.029 30.5569 109.029 34.1542L109.029 34.1546ZM127.101 23.2169C120.821 23.2169 115.9 28.055 115.9 34.2327C115.9 40.3431 120.787 45.1304 127.024 45.1304C133.327 45.1304 138.263 40.3085 138.263 34.1546C138.263 28.0219 133.36 23.2176 127.101 23.2176L127.101 23.2169ZM127.101 40.3982C123.761 40.3982 121.242 37.713 121.242 34.1528C121.242 30.5774 123.673 27.983 127.024 27.983C130.386 27.983 132.922 30.6682 132.922 34.2309C132.922 37.8055 130.474 40.3982 127.101 40.3982H127.101ZM151.674 23.6432H146.546V18.3982C146.546 18.2102 146.394 18.0568 146.206 18.0568H141.547C141.358 18.0568 141.205 18.2102 141.205 18.3982V23.6432H138.964C138.777 23.6432 138.625 23.7966 138.625 23.985V27.9917C138.625 28.1796 138.777 28.3334 138.964 28.3334H141.205V38.7007C141.205 42.8903 143.289 45.0145 147.4 45.0145C149.072 45.0145 150.459 44.6692 151.766 43.9278C151.872 43.8683 151.938 43.7538 151.938 43.6321V39.8166C151.938 39.6989 151.876 39.5876 151.776 39.526C151.674 39.4623 151.548 39.4591 151.444 39.5105C150.546 39.9625 149.678 40.171 148.708 40.171C147.213 40.171 146.546 39.4918 146.546 37.9697V28.3352H151.674C151.862 28.3352 152.014 28.1818 152.014 27.9935V23.9871C152.021 23.7988 151.87 23.6454 151.679 23.6454L151.674 23.6432ZM169.542 23.6638V23.0196C169.542 21.1244 170.268 20.2793 171.897 20.2793C172.869 20.2793 173.649 20.4723 174.523 20.764C174.631 20.7978 174.743 20.7809 174.83 20.7164C174.92 20.652 174.971 20.5486 174.971 20.4392V16.5106C174.971 16.3604 174.875 16.2276 174.73 16.1833C173.807 15.9085 172.625 15.6266 170.857 15.6266C166.552 15.6266 164.277 18.0514 164.277 22.6364V23.623H162.038C161.85 23.623 161.696 23.7764 161.696 23.9644V27.9916C161.696 28.1796 161.85 28.3334 162.038 28.3334H164.277V44.3245C164.277 44.5128 164.429 44.6662 164.617 44.6662H169.277C169.465 44.6662 169.619 44.5128 169.619 44.3245V28.3345H173.97L180.635 44.3217C179.878 46.0015 179.134 46.3357 178.118 46.3357C177.297 46.3357 176.433 46.0904 175.549 45.6065C175.466 45.5607 175.367 45.5532 175.277 45.5809C175.188 45.6122 175.114 45.6785 175.076 45.7649L173.496 49.2315C173.421 49.3953 173.486 49.5876 173.643 49.6726C175.292 50.566 176.78 50.9473 178.62 50.9473C182.061 50.9473 183.963 49.3438 185.64 45.03L193.724 24.1304C193.765 24.0253 193.753 23.9064 193.688 23.8132C193.624 23.7206 193.521 23.6648 193.408 23.6648H188.557C188.411 23.6648 188.281 23.7574 188.234 23.8939L183.264 38.095L177.821 23.8845C177.771 23.7523 177.644 23.6648 177.503 23.6648H169.541L169.542 23.6638ZM159.183 23.6432H154.522C154.334 23.6432 154.181 23.7966 154.181 23.985V44.3246C154.181 44.5129 154.334 44.6663 154.522 44.6663H159.183C159.37 44.6663 159.524 44.5129 159.524 44.3246V23.9864C159.524 23.9414 159.515 23.8969 159.498 23.8554C159.481 23.8139 159.456 23.7761 159.424 23.7444C159.392 23.7126 159.355 23.6875 159.313 23.6704C159.272 23.6533 159.227 23.6445 159.182 23.6447L159.183 23.6432ZM156.879 14.3821C155.033 14.3821 153.535 15.8772 153.535 17.7241C153.535 19.5721 155.033 21.069 156.879 21.069C158.724 21.069 160.221 19.5721 160.221 17.7241C160.221 15.8776 158.724 14.3821 156.881 14.3821H156.879ZM197.703 30.1828C195.859 30.1828 194.424 28.701 194.424 26.9017C194.424 25.1023 195.878 23.6036 197.721 23.6036C199.565 23.6036 201 25.085 201 26.8829C201 28.6823 199.546 30.1828 197.703 30.1828H197.703ZM197.721 23.9299C196.042 23.9299 194.771 25.2658 194.771 26.9017C194.771 28.5368 196.033 29.8548 197.704 29.8548C199.384 29.8548 200.656 28.5199 200.656 26.8829C200.656 25.2478 199.393 23.9299 197.723 23.9299H197.721ZM198.449 27.2203L199.376 28.5196H198.594L197.759 27.3277H197.041V28.5196H196.386V25.0757H197.921C198.721 25.0757 199.247 25.4851 199.247 26.1743C199.25 26.7389 198.923 27.0839 198.451 27.2204L198.449 27.2203ZM197.894 25.6666H197.04V26.7559H197.894C198.32 26.7559 198.575 26.5474 198.575 26.2107C198.575 25.8564 198.319 25.6666 197.895 25.6666L197.894 25.6666Z" fill="#42527B"/>
</svg>
