<svg width="32" height="32" viewBox="0 0 32 32" fill="none" xmlns="http://www.w3.org/2000/svg">
<mask id="mask0_155_299" style="mask-type:luminance" maskUnits="userSpaceOnUse" x="7" y="8" width="18" height="16">
<path d="M7 8H24.6666V23.8547H7V8Z" fill="white"/>
</mask>
<g mask="url(#mask0_155_299)">
<path d="M22.88 23.8453H8.78659C7.79998 23.8453 7 23.0454 7 22.0587V9.79538C7 8.80877 7.79998 8.00879 8.78659 8.00879H22.8805C23.8666 8.00879 24.6666 8.80877 24.6666 9.79538V22.0592C24.6666 23.0454 23.8666 23.8453 22.88 23.8453Z" fill="#E1E1E1"/>
</g>
<mask id="mask1_155_299" style="mask-type:luminance" maskUnits="userSpaceOnUse" x="7" y="8" width="18" height="16">
<path d="M7 8H24.6666V23.8547H7V8Z" fill="white"/>
</mask>
<g mask="url(#mask1_155_299)">
<path d="M22.3981 8.01855H16.6578C16.6415 8.01855 16.6265 8.02897 16.6211 8.04392C16.1636 9.27289 15.7998 10.5458 15.5344 11.8282C15.2834 13.0875 15.1253 14.374 15.0696 15.6605C15.0687 15.6827 15.0864 15.7013 15.109 15.7013H16.839C17.0202 15.7013 17.1969 15.7783 17.3192 15.9142C17.4415 16.0501 17.5004 16.2313 17.4822 16.4125C17.3568 17.7298 17.3554 19.0647 17.4913 20.3825C17.4936 20.4056 17.5149 20.4223 17.5375 20.4178C18.5826 20.2185 19.9225 19.7546 21.1741 18.7041C21.3689 18.5456 21.6543 18.5728 21.8128 18.763C21.9759 18.9533 21.9487 19.2387 21.7585 19.4018C20.337 20.5899 18.8136 21.1036 17.6453 21.3202C17.6249 21.3238 17.6118 21.3433 17.615 21.3637C17.74 22.1931 17.9212 23.018 18.1495 23.8257C18.154 23.8433 18.1694 23.8551 18.1871 23.8551H22.3646C23.3856 23.8551 24.2137 23.027 24.2137 22.0055V9.83414C24.2137 8.83122 23.401 8.01855 22.3981 8.01855ZM20.2047 13.4137C20.2047 13.6628 20.0009 13.8667 19.7517 13.8667C19.5026 13.8667 19.2987 13.6628 19.2987 13.4137V11.9415C19.2987 11.6923 19.5026 11.4885 19.7517 11.4885C20.0009 11.4885 20.2047 11.6923 20.2047 11.9415V13.4137Z" fill="#E1E1E1"/>
</g>
<mask id="mask2_155_299" style="mask-type:luminance" maskUnits="userSpaceOnUse" x="7" y="8" width="18" height="16">
<path d="M7 8H24.6666V23.8547H7V8Z" fill="white"/>
</mask>
<g mask="url(#mask2_155_299)">
<path d="M19.2987 13.4135V11.9413C19.2987 11.6921 19.5026 11.4883 19.7517 11.4883C20.0008 11.4883 20.2047 11.6921 20.2047 11.9413V13.4135C20.2047 13.6626 20.0008 13.8665 19.7517 13.8665C19.5026 13.8665 19.2987 13.6626 19.2987 13.4135Z" fill="#00B7F9"/>
</g>
<mask id="mask3_155_299" style="mask-type:luminance" maskUnits="userSpaceOnUse" x="7" y="8" width="18" height="16">
<path d="M7 8H24.6666V23.8547H7V8Z" fill="white"/>
</mask>
<g mask="url(#mask3_155_299)">
<path d="M21.7584 19.4022C20.3224 20.6026 18.7823 21.1145 17.609 21.3274C17.7359 22.179 17.9216 23.0261 18.1572 23.8551H8.81332C7.81176 23.8551 7 23.0433 7 22.0418V9.83641C7 8.83258 7.81402 8.01855 8.81785 8.01855H16.6306C16.1685 9.25522 15.8016 10.5372 15.5343 11.8282C15.2807 13.1011 15.1221 14.4012 15.0678 15.7013H16.839C17.0201 15.7013 17.1968 15.7783 17.3191 15.9142C17.4414 16.0501 17.5003 16.2313 17.4822 16.4125C17.3554 17.7443 17.3554 19.0942 17.4958 20.426C18.5467 20.2312 19.9057 19.7691 21.1741 18.7046C21.3689 18.5461 21.6542 18.5732 21.8128 18.7635C21.9759 18.9537 21.9487 19.2391 21.7584 19.4022Z" fill="#00B7F9"/>
</g>
<mask id="mask4_155_299" style="mask-type:luminance" maskUnits="userSpaceOnUse" x="7" y="8" width="18" height="16">
<path d="M7 8H24.6666V23.8547H7V8Z" fill="white"/>
</mask>
<g mask="url(#mask4_155_299)">
<path d="M18.1572 23.8543C17.9217 23.0254 17.736 22.1783 17.6091 21.3266C17.5684 21.0594 17.5321 20.7876 17.5049 20.5203C17.5004 20.4886 17.5004 20.4569 17.4959 20.4252C17.3555 19.0934 17.3555 17.7435 17.4823 16.4117C17.5004 16.2305 17.4415 16.0493 17.3192 15.9134C17.1969 15.7775 17.0202 15.7005 16.839 15.7005H15.0679C15.1222 14.4004 15.2808 13.1003 15.5344 11.8274C15.8017 10.5364 16.1686 9.25445 16.6307 8.01779C16.6669 7.92266 16.7032 7.83206 16.7394 7.73693L15.8968 7.40625C15.8198 7.6101 15.7428 7.81394 15.6703 8.01779C15.24 9.20009 14.8957 10.4186 14.6466 11.6508C14.3612 13.0596 14.1981 14.5001 14.1528 15.9406C14.1483 16.1173 14.2117 16.2849 14.3385 16.4117C14.4563 16.534 14.6285 16.6065 14.8051 16.6065H16.5537C16.4449 17.9156 16.4585 19.2384 16.5944 20.543C16.599 20.5656 16.599 20.5928 16.6035 20.6154C16.6352 20.8918 16.6669 21.1681 16.7122 21.4399C16.83 22.2553 17.0021 23.0616 17.215 23.8543C17.3328 24.2847 17.4596 24.706 17.6046 25.1272L18.4653 24.8328C18.352 24.5112 18.2524 24.1805 18.1572 23.8543Z" fill="#00A0D1"/>
</g>
<mask id="mask5_155_299" style="mask-type:luminance" maskUnits="userSpaceOnUse" x="7" y="8" width="18" height="16">
<path d="M7 8H24.6666V23.8547H7V8Z" fill="white"/>
</mask>
<g mask="url(#mask5_155_299)">
<path d="M21.7585 19.4015C20.3225 20.602 18.7823 21.1138 17.6091 21.3267C17.2784 21.3856 16.9749 21.4219 16.7122 21.44C16.4585 21.4626 16.2411 21.4672 16.0735 21.4672C13.1698 21.4672 11.1313 20.0221 10.3884 19.4015C10.1937 19.2385 10.171 18.9531 10.3295 18.7628C10.4926 18.5726 10.778 18.5454 10.9683 18.7039C11.6342 19.2656 13.4642 20.5612 16.0735 20.5612C16.2139 20.5612 16.3906 20.5567 16.5944 20.5431C16.8526 20.5249 17.1561 20.4887 17.4959 20.4253C18.5468 20.2305 19.9058 19.7685 21.1741 18.7039C21.3689 18.5454 21.6543 18.5726 21.8129 18.7628C21.9759 18.9531 21.9488 19.2385 21.7585 19.4015Z" fill="#37474F"/>
</g>
<mask id="mask6_155_299" style="mask-type:luminance" maskUnits="userSpaceOnUse" x="7" y="8" width="18" height="16">
<path d="M7 8H24.6666V23.8547H7V8Z" fill="white"/>
</mask>
<g mask="url(#mask6_155_299)">
<path d="M11.904 13.8666C11.6535 13.8666 11.451 13.6636 11.451 13.4136V11.9422C11.451 11.6922 11.6535 11.4893 11.904 11.4893C12.1545 11.4893 12.357 11.6922 12.357 11.9422V13.4136C12.357 13.6636 12.1545 13.8666 11.904 13.8666Z" fill="#37474F"/>
</g>
<mask id="mask7_155_299" style="mask-type:luminance" maskUnits="userSpaceOnUse" x="7" y="8" width="18" height="16">
<path d="M7 8H24.6666V23.8547H7V8Z" fill="white"/>
</mask>
<g mask="url(#mask7_155_299)">
<path d="M20.2047 11.9413V13.4135C20.2047 13.6626 20.0008 13.8665 19.7517 13.8665C19.5026 13.8665 19.2987 13.6626 19.2987 13.4135V11.9413C19.2987 11.6921 19.5026 11.4883 19.7517 11.4883C20.0008 11.4883 20.2047 11.6921 20.2047 11.9413Z" fill="#37474F"/>
</g>
</svg>
