<svg width="189" height="32" viewBox="0 0 189 32" fill="none" xmlns="http://www.w3.org/2000/svg">
<path d="M12.1463 25.3124V21.5674L11.9822 20.8652V14.4786C11.9822 13.1188 11.5882 12.0711 10.8004 11.3354C10.0344 10.5775 8.87447 10.1985 7.32061 10.1985C6.29201 10.1985 5.28529 10.3769 4.30045 10.7335C3.31561 11.0679 2.48397 11.5249 1.80553 12.1045L0.492418 9.69697C1.38971 8.96134 2.46209 8.40404 3.70955 8.02508C4.97889 7.62382 6.30295 7.4232 7.68172 7.4232C10.0672 7.4232 11.9056 8.01393 13.1968 9.1954C14.488 10.3769 15.1336 12.1825 15.1336 14.6123V25.3124H12.1463ZM6.43426 25.5131C5.14303 25.5131 4.005 25.2901 3.02016 24.8443C2.05721 24.3985 1.31311 23.7854 0.787869 23.0052C0.262623 22.2027 0 21.2999 0 20.2968C0 19.3382 0.218852 18.4688 0.656557 17.6886C1.11615 16.9084 1.8493 16.2842 2.85602 15.8161C3.88463 15.348 5.2634 15.1139 6.99233 15.1139H12.5074V17.4211H7.12365C5.54791 17.4211 4.48647 17.6886 3.93934 18.2236C3.39221 18.7586 3.11865 19.4051 3.11865 20.163C3.11865 21.0324 3.45787 21.7346 4.13631 22.2696C4.81475 22.7823 5.75582 23.0387 6.95951 23.0387C8.14131 23.0387 9.16992 22.7712 10.0453 22.2362C10.9426 21.7011 11.5882 20.9209 11.9822 19.8955L12.6059 22.1024C12.1901 23.1501 11.4569 23.9861 10.4064 24.6102C9.35594 25.2121 8.03188 25.5131 6.43426 25.5131Z" fill="#7DA9A9"/>
<path d="M20.9657 25.3124V7.59039H23.9859V12.4054L23.6904 11.2017C24.1719 9.97562 24.9817 9.03936 26.1197 8.39289C27.2577 7.74643 28.6584 7.4232 30.3217 7.4232V10.5329C30.1903 10.5106 30.059 10.4995 29.9277 10.4995C29.8183 10.4995 29.7089 10.4995 29.5994 10.4995C27.9143 10.4995 26.5793 11.0122 25.5944 12.0376C24.6096 13.063 24.1172 14.5455 24.1172 16.4848V25.3124H20.9657Z" fill="#7DA9A9"/>
<path d="M40.8858 25.5131C39.135 25.5131 37.7781 25.0338 36.8152 24.0752C35.8522 23.1167 35.3707 21.7457 35.3707 19.9624V3.7116H38.5222V19.8286C38.5222 20.7872 38.752 21.5228 39.2116 22.0355C39.6931 22.5482 40.3715 22.8046 41.2469 22.8046C42.2318 22.8046 43.0525 22.5259 43.709 21.9687L44.6939 24.2759C44.2124 24.6994 43.6324 25.0115 42.954 25.2121C42.2974 25.4127 41.608 25.5131 40.8858 25.5131ZM32.4162 10.232V7.59039H43.512V10.232H32.4162Z" fill="#7DA9A9"/>
<path d="M48.5039 25.3124V7.59039H51.6554V25.3124H48.5039ZM50.0797 4.17973C49.4669 4.17973 48.9526 3.9791 48.5368 3.57785C48.1428 3.17659 47.9459 2.68617 47.9459 2.10658C47.9459 1.5047 48.1428 1.00314 48.5368 0.601881C48.9526 0.200627 49.4669 0 50.0797 0C50.6925 0 51.1958 0.200627 51.5898 0.601881C52.0056 0.980842 52.2135 1.46012 52.2135 2.03971C52.2135 2.64159 52.0165 3.1543 51.6226 3.57785C51.2286 3.9791 50.7143 4.17973 50.0797 4.17973Z" fill="#7DA9A9"/>
<path d="M58.1322 25.3124V1.90596H60.8241L71.1321 19.5946H69.6876L79.8643 1.90596H82.5562L82.589 25.3124H79.4375L79.4047 6.95507H80.1597L71.0993 22.4702H69.5892L60.463 6.95507H61.2837V25.3124H58.1322Z" fill="black"/>
<path d="M99.8262 25.3124V21.5674L99.6621 20.8652V14.4786C99.6621 13.1188 99.2681 12.0711 98.4802 11.3354C97.7143 10.5775 96.5543 10.1985 95.0005 10.1985C93.9719 10.1985 92.9652 10.3769 91.9803 10.7335C90.9955 11.0679 90.1639 11.5249 89.4854 12.1045L88.1723 9.69697C89.0696 8.96134 90.142 8.40404 91.3894 8.02508C92.6588 7.62382 93.9828 7.4232 95.3616 7.4232C97.7471 7.4232 99.5855 8.01393 100.877 9.1954C102.168 10.3769 102.814 12.1825 102.814 14.6123V25.3124H99.8262ZM94.1141 25.5131C92.8229 25.5131 91.6849 25.2901 90.7 24.8443C89.7371 24.3985 88.993 23.7854 88.4678 23.0052C87.9425 22.2027 87.6799 21.2999 87.6799 20.2968C87.6799 19.3382 87.8987 18.4688 88.3364 17.6886C88.796 16.9084 89.5292 16.2842 90.5359 15.8161C91.5645 15.348 92.9433 15.1139 94.6722 15.1139H100.187V17.4211H94.8035C93.2278 17.4211 92.1664 17.6886 91.6192 18.2236C91.0721 18.7586 90.7985 19.4051 90.7985 20.163C90.7985 21.0324 91.1378 21.7346 91.8162 22.2696C92.4946 22.7823 93.4357 23.0387 94.6394 23.0387C95.8212 23.0387 96.8498 22.7712 97.7252 22.2362C98.6225 21.7011 99.2681 20.9209 99.6621 19.8955L100.286 22.1024C99.87 23.1501 99.1368 23.9861 98.0863 24.6102C97.0358 25.2121 95.7118 25.5131 94.1141 25.5131Z" fill="black"/>
<path d="M117.936 7.4232C119.358 7.4232 120.606 7.70185 121.678 8.25914C122.773 8.81644 123.626 9.66353 124.239 10.8004C124.852 11.9373 125.158 13.3751 125.158 15.1139V25.3124H122.007V15.4817C122.007 13.7652 121.591 12.4723 120.759 11.6029C119.949 10.7335 118.8 10.2988 117.312 10.2988C116.196 10.2988 115.222 10.5218 114.39 10.9676C113.559 11.4134 112.913 12.0711 112.454 12.9404C112.016 13.8098 111.797 14.891 111.797 16.1839V25.3124H108.646V7.59039H111.666V12.372L111.173 11.1014C111.742 9.94218 112.618 9.03936 113.8 8.39289C114.981 7.74643 116.36 7.4232 117.936 7.4232Z" fill="black"/>
<path d="M141.791 25.3124V21.5674L141.627 20.8652V14.4786C141.627 13.1188 141.233 12.0711 140.445 11.3354C139.679 10.5775 138.519 10.1985 136.965 10.1985C135.936 10.1985 134.93 10.3769 133.945 10.7335C132.96 11.0679 132.128 11.5249 131.45 12.1045L130.137 9.69697C131.034 8.96134 132.107 8.40404 133.354 8.02508C134.623 7.62382 135.947 7.4232 137.326 7.4232C139.712 7.4232 141.55 8.01393 142.841 9.1954C144.132 10.3769 144.778 12.1825 144.778 14.6123V25.3124H141.791ZM136.079 25.5131C134.787 25.5131 133.649 25.2901 132.665 24.8443C131.702 24.3985 130.958 23.7854 130.432 23.0052C129.907 22.2027 129.644 21.2999 129.644 20.2968C129.644 19.3382 129.863 18.4688 130.301 17.6886C130.761 16.9084 131.494 16.2842 132.5 15.8161C133.529 15.348 134.908 15.1139 136.637 15.1139H142.152V17.4211H136.768C135.192 17.4211 134.131 17.6886 133.584 18.2236C133.037 18.7586 132.763 19.4051 132.763 20.163C132.763 21.0324 133.102 21.7346 133.781 22.2696C134.459 22.7823 135.4 23.0387 136.604 23.0387C137.786 23.0387 138.814 22.7712 139.69 22.2362C140.587 21.7011 141.233 20.9209 141.627 19.8955L142.25 22.1024C141.834 23.1501 141.101 23.9861 140.051 24.6102C139 25.2121 137.676 25.5131 136.079 25.5131Z" fill="black"/>
<path d="M158.226 32C156.629 32 155.075 31.7659 153.565 31.2978C152.076 30.852 150.862 30.2055 149.921 29.3584L151.431 26.884C152.241 27.5974 153.236 28.1546 154.418 28.5559C155.6 28.9794 156.836 29.1912 158.128 29.1912C160.185 29.1912 161.695 28.7008 162.658 27.72C163.621 26.7391 164.102 25.2456 164.102 23.2393V19.4943L164.431 15.9833L164.267 12.4389V7.59039H167.254V22.9049C167.254 26.0258 166.488 28.3218 164.956 29.7931C163.424 31.2644 161.181 32 158.226 32ZM157.832 24.5768C156.147 24.5768 154.637 24.2201 153.302 23.5068C151.989 22.7712 150.938 21.7569 150.151 20.4639C149.385 19.171 149.002 17.6775 149.002 15.9833C149.002 14.2668 149.385 12.7732 150.151 11.5026C150.938 10.2097 151.989 9.20655 153.302 8.49321C154.637 7.77987 156.147 7.4232 157.832 7.4232C159.32 7.4232 160.677 7.73528 161.903 8.35946C163.128 8.96134 164.102 9.8976 164.825 11.1682C165.569 12.4389 165.941 14.0439 165.941 15.9833C165.941 17.9004 165.569 19.4943 164.825 20.7649C164.102 22.0355 163.128 22.9941 161.903 23.6405C160.677 24.2647 159.32 24.5768 157.832 24.5768ZM158.193 21.768C159.353 21.768 160.382 21.5228 161.279 21.0324C162.176 20.542 162.877 19.8621 163.38 18.9927C163.905 18.1233 164.168 17.1202 164.168 15.9833C164.168 14.8464 163.905 13.8433 163.38 12.9739C162.877 12.1045 162.176 11.4357 161.279 10.9676C160.382 10.4772 159.353 10.232 158.193 10.232C157.033 10.232 155.994 10.4772 155.075 10.9676C154.177 11.4357 153.466 12.1045 152.941 12.9739C152.438 13.8433 152.186 14.8464 152.186 15.9833C152.186 17.1202 152.438 18.1233 152.941 18.9927C153.466 19.8621 154.177 20.542 155.075 21.0324C155.994 21.5228 157.033 21.768 158.193 21.768Z" fill="black"/>
<path d="M181.023 25.5131C179.163 25.5131 177.521 25.123 176.099 24.3427C174.698 23.5625 173.604 22.4925 172.816 21.1327C172.05 19.7729 171.667 18.2125 171.667 16.4514C171.667 14.6904 172.039 13.1299 172.783 11.7701C173.549 10.4103 174.589 9.35145 175.902 8.59352C177.237 7.81331 178.736 7.4232 180.399 7.4232C182.084 7.4232 183.572 7.80216 184.864 8.56008C186.155 9.31801 187.162 10.388 187.884 11.7701C188.628 13.1299 189 14.7238 189 16.5517C189 16.6855 188.989 16.8415 188.967 17.0199C188.967 17.1982 188.956 17.3654 188.934 17.5214H174.129V15.2142H187.293L186.013 16.0167C186.035 14.8798 185.805 13.8656 185.323 12.9739C184.842 12.0822 184.174 11.3912 183.321 10.9007C182.489 10.388 181.515 10.1317 180.399 10.1317C179.305 10.1317 178.331 10.388 177.477 10.9007C176.624 11.3912 175.956 12.0933 175.475 13.0073C174.993 13.899 174.753 14.9244 174.753 16.0836V16.6186C174.753 17.8001 175.015 18.8589 175.541 19.7952C176.088 20.7092 176.843 21.4225 177.806 21.9352C178.769 22.4479 179.874 22.7043 181.121 22.7043C182.15 22.7043 183.08 22.5259 183.912 22.1693C184.765 21.8126 185.509 21.2776 186.144 20.5643L187.884 22.6374C187.096 23.5737 186.111 24.287 184.929 24.7774C183.769 25.2679 182.467 25.5131 181.023 25.5131Z" fill="black"/>
</svg>
