<svg width="80" height="80" viewBox="0 0 80 80" fill="none" xmlns="http://www.w3.org/2000/svg">
<circle cx="40" cy="40" r="40" fill="url(#paint0_linear_12_5599)" fill-opacity="0.5"/>
<path d="M31.2051 53.0214V34.5459H34.9485V53.0214H31.2051ZM23.6579 53.0214V34.5459H27.3007V53.0214H23.6579ZM38.8529 53.0214V34.5459H42.4755V53.0214H38.8529ZM49.8617 34.5459V43.1396L46.3799 44.7497V34.5459H49.8617Z" fill="#4285F4"/>
<path d="M50.4252 51.19L49.5396 52.0755L52.0755 54.6718L53.2629 53.4441L53.6453 53.0617V59.0994L53.2629 59.663H53.1421C52.4311 59.4597 51.7532 59.1547 51.1296 58.7573C49.9558 57.9679 48.974 56.9253 48.2565 55.7062C47.539 54.4871 47.104 53.1227 46.9836 51.7133V46.4202L53.3635 43.502L53.7459 44.2466V51.2705L53.3635 51.6529L52.0755 52.8806L50.4252 51.19Z" fill="#AECBFA"/>
<path d="M53.2428 43.502V51.5523L53.6252 51.1699L56.2214 48.4931L57.0868 49.3787L53.6252 52.9611L53.2428 53.3435V59.502H53.3636C54.0752 59.3003 54.7533 58.9952 55.3761 58.5963C56.5529 57.8101 57.537 56.7683 58.2549 55.5486C58.9728 54.3289 59.4059 52.9628 59.522 51.5523V51.2504V46.4202L53.2428 43.502Z" fill="#669DF6"/>
<path d="M46.0378 55.0945H36.7598V51.814H45.1522V51.9347C45.2839 53.0271 45.5826 54.0928 46.0378 55.0945Z" fill="#669DF6"/>
<path d="M34.5057 28.9712C34.5057 29.569 34.7432 30.1424 35.1659 30.5651C35.5886 30.9878 36.162 31.2253 36.7598 31.2253V35.2505H20.3774V31.9498L36.7598 20.458V26.697C36.1601 26.7023 35.5868 26.9443 35.1647 27.3702C34.7425 27.7961 34.5057 28.3715 34.5057 28.9712Z" fill="#AECBFA"/>
<path d="M53.1422 31.9498V35.1498H36.7598V31.2252C37.3234 31.172 37.847 30.9105 38.228 30.4918C38.6091 30.0731 38.8203 29.5273 38.8203 28.9611C38.8203 28.3949 38.6091 27.8491 38.228 27.4304C37.847 27.0117 37.3234 26.7501 36.7598 26.6969V20.3774L53.1422 31.9498Z" fill="#669DF6"/>
<path d="M36.7598 51.7939V55.0946H20.3774V51.8342L36.7598 51.7939Z" fill="#AECBFA"/>
<defs>
<linearGradient id="paint0_linear_12_5599" x1="29.5946" y1="9.364" x2="70.7744" y2="13.8916" gradientUnits="userSpaceOnUse">
<stop stop-color="#7DA9A9"/>
<stop offset="1" stop-color="#B4F2EE"/>
</linearGradient>
</defs>
</svg>
