<svg width="80" height="80" viewBox="0 0 80 80" fill="none" xmlns="http://www.w3.org/2000/svg">
<circle cx="40" cy="40" r="40" fill="url(#paint0_linear_12_5614)" fill-opacity="0.5"/>
<path fill-rule="evenodd" clip-rule="evenodd" d="M37.7874 26.6845L29.2649 21.6565C29.0435 21.5328 28.8494 21.3657 28.6941 21.1652C28.5388 20.9647 28.4255 20.735 28.361 20.4897C28.2966 20.2445 28.2823 19.9887 28.319 19.7378C28.3556 19.4868 28.4426 19.2459 28.5745 19.0293C28.7065 18.8128 28.8808 18.6251 29.087 18.4774C29.2932 18.3298 29.527 18.2253 29.7745 18.1701C30.0221 18.115 30.2782 18.1103 30.5275 18.1564C30.7769 18.2026 31.0144 18.2985 31.2258 18.4385L39.6729 23.4666L37.7874 26.6845Z" fill="#4285F4"/>
<path fill-rule="evenodd" clip-rule="evenodd" d="M38.441 35.3573L21.2703 25.4269C21.0557 25.3031 20.8676 25.1383 20.7167 24.9418C20.5658 24.7452 20.4551 24.521 20.3909 24.2817C20.2613 23.7984 20.3289 23.2834 20.5789 22.8501C20.829 22.4167 21.2409 22.1003 21.7242 21.9707C22.2074 21.841 22.7224 21.9087 23.1558 22.1587L38.441 31.008V35.3573Z" fill="#4285F4"/>
<path fill-rule="evenodd" clip-rule="evenodd" d="M58.7542 22.8377C58.4986 22.4276 58.0972 22.1297 57.6307 22.0037C57.1643 21.8778 56.6674 21.9332 56.2402 22.1589L41.5332 30.5557V26.659L50.0557 21.631C50.4668 21.3759 50.7623 20.9707 50.8797 20.5014C50.997 20.0321 50.9269 19.5355 50.6842 19.117C50.4249 18.7108 50.0198 18.4193 49.5523 18.3024C49.0848 18.1855 48.5902 18.2521 48.1702 18.4885L38.7678 23.969C38.4698 24.144 38.2225 24.3938 38.0506 24.6936C37.8786 24.9934 37.7879 25.3329 37.7874 25.6785V62.2322C37.7567 62.4964 37.7823 62.7641 37.8624 63.0177C37.9425 63.2713 38.0754 63.5051 38.2523 63.7037C38.4292 63.9023 38.6461 64.0612 38.8887 64.17C39.1314 64.2789 39.3943 64.3351 39.6603 64.3351C39.9262 64.3351 40.1892 64.2789 40.4318 64.17C40.6745 64.0612 40.8914 63.9023 41.0683 63.7037C41.2452 63.5051 41.3781 63.2713 41.4582 63.0177C41.5383 62.7641 41.5639 62.4964 41.5332 62.2322V34.9301L58.0503 25.4271C58.4844 25.1746 58.8016 24.7614 58.9333 24.2768C59.065 23.7922 59.0007 23.2752 58.7542 22.8377Z" fill="#669DF6"/>
<path d="M39.6729 19.3183C40.8392 19.3183 41.7847 18.3728 41.7847 17.2065C41.7847 16.0402 40.8392 15.0947 39.6729 15.0947C38.5066 15.0947 37.5612 16.0402 37.5612 17.2065C37.5612 18.3728 38.5066 19.3183 39.6729 19.3183Z" fill="#669DF6"/>
<path d="M33.3125 36.6403C33.6014 36.7981 33.8425 37.0308 34.0106 37.3139C34.1787 37.597 34.2675 37.92 34.2678 38.2493V48.5064C34.2693 48.8394 34.1815 49.1666 34.0135 49.4541C33.8454 49.7415 33.6034 49.9786 33.3125 50.1405C33.0277 50.2994 32.7083 50.3858 32.3823 50.3919C32.0487 50.383 31.7217 50.2969 31.4269 50.1405L20.5664 43.8806C20.133 43.6306 19.8167 43.2187 19.6871 42.7354C19.5574 42.2521 19.625 41.7372 19.8751 41.3038C20.1251 40.8704 20.5371 40.5541 21.0203 40.4244C21.5036 40.2948 22.0185 40.3624 22.4519 40.6124L30.4968 45.2382V39.3554L26.8515 37.2688C26.4367 37.0175 26.1348 36.616 26.0084 36.1478C25.882 35.6796 25.9408 35.1807 26.1727 34.7548C26.4196 34.3352 26.8211 34.0291 27.2911 33.9022C27.7611 33.7753 28.2621 33.8377 28.6867 34.076L33.3125 36.6403Z" fill="#4285F4"/>
<path d="M22.7034 34.83C23.8697 34.83 24.8152 33.8845 24.8152 32.7182C24.8152 31.5519 23.8697 30.6064 22.7034 30.6064C21.5371 30.6064 20.5916 31.5519 20.5916 32.7182C20.5916 33.8845 21.5371 34.83 22.7034 34.83Z" fill="#4285F4"/>
<path d="M50.5587 33.9998C50.9832 33.7615 51.4842 33.6991 51.9542 33.826C52.4242 33.9529 52.8258 34.259 53.0727 34.6786C53.3045 35.1045 53.3634 35.6034 53.237 36.0716C53.1106 36.5398 52.8086 36.9413 52.3939 37.1926L48.7486 39.2793V45.162L56.7934 40.5363C57.008 40.4125 57.2449 40.3321 57.4905 40.2999C57.7362 40.2676 57.9857 40.2841 58.225 40.3483C58.4643 40.4125 58.6886 40.5231 58.8851 40.674C59.0816 40.8249 59.2465 41.013 59.3703 41.2276C59.4941 41.4422 59.5744 41.6791 59.6067 41.9247C59.6389 42.1704 59.6225 42.4199 59.5583 42.6592C59.4941 42.8985 59.3834 43.1228 59.2325 43.3193C59.0816 43.5158 58.8935 43.6807 58.6789 43.8045L47.8184 50.0644C47.5236 50.2208 47.1966 50.3068 46.8631 50.3158C46.5371 50.3096 46.2176 50.2232 45.9329 50.0644C45.642 49.9024 45.3999 49.6653 45.2319 49.3779C45.0638 49.0905 44.976 48.7632 44.9776 48.4303V38.2485C44.9778 37.9193 45.0667 37.5962 45.2348 37.3131C45.4028 37.03 45.644 36.7974 45.9329 36.6395L50.5587 33.9998Z" fill="#AECBFA"/>
<path d="M56.5921 34.83C57.7584 34.83 58.7039 33.8845 58.7039 32.7182C58.7039 31.5519 57.7584 30.6064 56.5921 30.6064C55.4258 30.6064 54.4803 31.5519 54.4803 32.7182C54.4803 33.8845 55.4258 34.83 56.5921 34.83Z" fill="#AECBFA"/>
<defs>
<linearGradient id="paint0_linear_12_5614" x1="29.5946" y1="9.364" x2="70.7744" y2="13.8916" gradientUnits="userSpaceOnUse">
<stop stop-color="#7DA9A9"/>
<stop offset="1" stop-color="#B4F2EE"/>
</linearGradient>
</defs>
</svg>
