<svg width="80" height="80" viewBox="0 0 80 80" fill="none" xmlns="http://www.w3.org/2000/svg">
<circle cx="40" cy="40" r="40" fill="url(#paint0_linear_12_5564)" fill-opacity="0.5"/>
<path d="M38.8428 18.8682V23.4971H27.3219V55.8996H38.8428V60.5285H26.4701C24.4652 60.5285 22.8229 58.846 22.6555 56.7206L22.6415 56.3625V23.0342C22.6415 20.7429 24.373 18.8682 26.4894 18.8682L38.8428 18.8682Z" fill="#4285F4"/>
<path d="M31.8994 47.7988H38.8427V51.2705H31.8994V47.7988Z" fill="#4285F4"/>
<path d="M31.8994 40.8555H38.8427V44.3272H31.8994V40.8555Z" fill="#4285F4"/>
<path d="M31.8994 33.9121H38.8427V37.3838H31.8994V33.9121Z" fill="#4285F4"/>
<path d="M49.2578 53.5849C51.1752 53.5849 52.7295 55.1393 52.7295 57.0566C52.7295 58.974 51.1752 60.5283 49.2578 60.5283C47.3404 60.5283 45.7861 58.974 45.7861 57.0566C45.7861 55.1393 47.3404 53.5849 49.2578 53.5849Z" fill="#4285F4"/>
<path d="M53.8868 32.7548C55.8042 32.7548 57.3585 34.3092 57.3585 36.2265C57.3585 38.1439 55.8042 39.6982 53.8868 39.6982C51.9694 39.6982 50.4151 38.1439 50.4151 36.2265C50.4151 34.3092 51.9694 32.7548 53.8868 32.7548Z" fill="#4285F4"/>
<path d="M46.9434 28.126C48.8608 28.126 50.4151 26.5717 50.4151 24.6543C50.4151 22.7369 48.8608 21.1826 46.9434 21.1826C45.0261 21.1826 43.4717 22.7369 43.4717 24.6543C43.4717 26.5717 45.0261 28.126 46.9434 28.126Z" fill="#4285F4"/>
<path d="M41.1573 36.2266H43.0417C47.4755 36.2266 46.9213 34.5989 46.9213 26.9688" stroke="#4285F4" stroke-width="2.66667"/>
<path d="M41.1573 43.1557H43.0385C51.7804 43.1557 53.9936 43.6684 53.8829 38.541" stroke="#4285F4" stroke-width="2.66667"/>
<path d="M41.1573 50.1325H42.354C48.7896 50.1182 49.3229 49.6203 49.2525 54.7422" stroke="#4285F4" stroke-width="2.66667"/>
<defs>
<linearGradient id="paint0_linear_12_5564" x1="29.5946" y1="9.364" x2="70.7744" y2="13.8916" gradientUnits="userSpaceOnUse">
<stop stop-color="#7DA9A9"/>
<stop offset="1" stop-color="#B4F2EE"/>
</linearGradient>
</defs>
</svg>
