<svg width="24" height="24" viewBox="0 0 24 24" fill="none" xmlns="http://www.w3.org/2000/svg">
<rect width="24" height="24" rx="12" fill="#7DA9A9"/>
<rect width="24" height="24" rx="12" fill="black" fill-opacity="0.01"/>
<path d="M12 10.2957C12.3226 10.2957 12.586 10.5585 12.586 10.881C12.586 11.1754 12.8253 11.414 13.1196 11.414C13.4133 11.414 13.6526 11.1754 13.6526 10.881C13.6526 10.1579 13.1815 9.54772 12.5329 9.3246V9.02218C12.5329 8.7285 12.2944 8.48858 12 8.48858C11.705 8.48858 11.4664 8.7285 11.4664 9.02218V9.3246C10.8179 9.54772 10.3481 10.1579 10.3481 10.881C10.3481 11.793 11.0887 12.5336 12 12.5336C12.3226 12.5336 12.586 12.797 12.586 13.1196C12.586 13.4429 12.3226 13.7056 12 13.7056C11.6774 13.7056 11.4147 13.4429 11.4147 13.1196C11.4147 12.8253 11.1754 12.586 10.881 12.586C10.586 12.586 10.3481 12.8253 10.3481 13.1196C10.3481 13.8427 10.8179 14.4523 11.4664 14.6754V14.9778C11.4664 15.2729 11.705 15.5121 12 15.5121C12.2944 15.5121 12.5329 15.2729 12.5329 14.9778V14.6754C13.1815 14.4523 13.6526 13.8427 13.6526 13.1196C13.6526 12.2083 12.9113 11.4671 12 11.4671C11.6774 11.4671 11.4147 11.2043 11.4147 10.881C11.4147 10.5585 11.6774 10.2957 12 10.2957ZM16.4684 14.9617C16.7298 15.0995 17.0517 14.9993 17.1888 14.7399C17.6324 13.9019 17.8663 12.9543 17.8663 12C17.8663 8.76613 15.2339 6.13441 12 6.13441C8.76546 6.13441 6.13374 8.76613 6.13374 12C6.13374 15.2345 8.76546 17.8663 12 17.8663C12.9402 17.8663 13.8743 17.6391 14.7016 17.2083C14.963 17.0733 15.0645 16.75 14.9288 16.4892C14.793 16.2292 14.4711 16.1257 14.209 16.2621C13.5242 16.6196 12.7802 16.8004 12 16.8004C9.3535 16.8004 7.1996 14.6472 7.1996 12C7.1996 9.35417 9.3535 7.20027 12 7.20027C14.6465 7.20027 16.8004 9.35417 16.8004 12C16.8004 12.7816 16.6082 13.5565 16.2466 14.2406C16.1082 14.5013 16.2077 14.8239 16.4684 14.9617ZM12 4C10.455 4 8.95497 4.4422 7.66263 5.27755C7.41465 5.4375 7.34409 5.76747 7.50403 6.01479C7.66465 6.2621 7.99328 6.33199 8.24194 6.17339C9.36022 5.45027 10.6613 5.0672 12 5.0672C15.8233 5.0672 18.9328 8.17742 18.9328 12C18.9328 15.8233 15.8233 18.9335 12 18.9335C8.17675 18.9335 5.06653 15.8233 5.06653 12C5.06653 10.6741 5.4422 9.38441 6.1539 8.27218C6.3125 8.02352 6.23992 7.69355 5.99126 7.53495C5.74328 7.37634 5.41331 7.44893 5.25538 7.69691C4.43414 8.98118 4 10.4704 4 12C4 16.412 7.58804 20 12 20C16.4113 20 20 16.412 20 12C20 7.58938 16.4113 4 12 4Z" fill="white" stroke="white" stroke-width="0.236232"/>
</svg>
