<svg width="24" height="24" viewBox="0 0 24 24" fill="none" xmlns="http://www.w3.org/2000/svg">
<rect width="24" height="24" rx="12" fill="#7DA9A9"/>
<rect width="24" height="24" rx="12" fill="black" fill-opacity="0.01"/>
<path d="M17.268 12.7736C17.4339 11.7118 17.2699 10.6246 16.7983 9.65895C16.3266 8.69328 15.5701 7.89559 14.6307 7.37358C14.6307 7.35958 14.6347 7.34691 14.6347 7.33291C14.6347 6.63415 14.3571 5.96401 13.863 5.46992C13.3689 4.97582 12.6988 4.69824 12 4.69824C11.3012 4.69824 10.6311 4.97582 10.137 5.46992C9.64291 5.96401 9.36533 6.63415 9.36533 7.33291C9.36533 7.34624 9.36933 7.35958 9.36933 7.37291C8.42982 7.89496 7.67315 8.69276 7.20151 9.65857C6.72987 10.6244 6.56599 11.7117 6.732 12.7736C6.31058 12.8714 5.9198 13.0717 5.59429 13.3567C5.26877 13.6417 5.01856 14.0025 4.86582 14.4073C4.71308 14.8121 4.66252 15.2483 4.71863 15.6772C4.77474 16.1062 4.93578 16.5147 5.18749 16.8666C5.4392 17.2185 5.7738 17.5028 6.16166 17.6945C6.54952 17.8861 6.97867 17.9792 7.41108 17.9654C7.84349 17.9516 8.26582 17.8313 8.64065 17.6153C9.01549 17.3993 9.33126 17.0941 9.56 16.7269C10.3123 17.1231 11.1498 17.3301 12 17.3301C12.8502 17.3301 13.6877 17.1231 14.44 16.7269C14.6688 17.0938 14.9846 17.3986 15.3593 17.6143C15.734 17.83 16.1562 17.95 16.5883 17.9637C17.0205 17.9774 17.4494 17.8843 17.837 17.6927C18.2246 17.5011 18.559 17.2169 18.8105 16.8652C19.0621 16.5135 19.2231 16.1053 19.2792 15.6765C19.3354 15.2478 19.285 14.8119 19.1324 14.4073C18.9799 14.0027 18.73 13.6419 18.4048 13.357C18.0796 13.072 17.6891 12.8716 17.268 12.7736ZM12 5.36691C12.3887 5.36691 12.7686 5.48216 13.0918 5.69808C13.415 5.91401 13.6669 6.22091 13.8157 6.57999C13.9644 6.93907 14.0034 7.3342 13.9276 7.71541C13.8518 8.09663 13.6647 8.44682 13.3899 8.72171C13.1151 8.99659 12.765 9.18382 12.3838 9.25973C12.0026 9.33564 11.6075 9.29681 11.2484 9.14816C10.8892 8.99952 10.5822 8.74772 10.3662 8.42461C10.1502 8.1015 10.0348 7.72159 10.0347 7.33291C10.0352 6.81183 10.2424 6.31225 10.6109 5.94379C10.9793 5.57534 11.4789 5.36744 12 5.36691ZM7.33333 17.2989C6.94465 17.2989 6.5647 17.1837 6.24152 16.9677C5.91834 16.7518 5.66643 16.4449 5.51766 16.0858C5.36889 15.7268 5.32993 15.3316 5.40571 14.9504C5.48149 14.5692 5.6686 14.219 5.94339 13.9441C6.21818 13.6692 6.56831 13.482 6.9495 13.4061C7.3307 13.3302 7.72584 13.369 8.08497 13.5177C8.4441 13.6663 8.75109 13.9181 8.96712 14.2412C9.18316 14.5643 9.29853 14.9442 9.29866 15.3329C9.29813 15.854 9.0909 16.3536 8.72245 16.722C8.35399 17.0905 7.85441 17.2984 7.33333 17.2989ZM9.83333 16.1256C9.91909 15.8699 9.96452 15.6025 9.968 15.3329C9.96676 14.6447 9.69626 13.9842 9.21436 13.4929C8.73246 13.0015 8.07741 12.7182 7.38933 12.7036C7.35227 12.4707 7.33266 12.2354 7.33066 11.9996C7.33086 11.2172 7.52841 10.4475 7.90504 9.76169C8.28166 9.0759 8.8252 8.4962 9.48533 8.07624C9.64273 8.62154 9.97312 9.10089 10.4267 9.44206C10.8803 9.78322 11.4324 9.96771 12 9.96771C12.5676 9.96771 13.1197 9.78322 13.5733 9.44206C14.0269 9.10089 14.3573 8.62154 14.5147 8.07624C15.1748 8.4962 15.7183 9.0759 16.095 9.76169C16.4716 10.4475 16.6691 11.2172 16.6693 11.9996C16.6673 12.2354 16.6477 12.4707 16.6107 12.7036C15.9226 12.7182 15.2675 13.0015 14.7856 13.4929C14.3037 13.9842 14.0332 14.6447 14.032 15.3329C14.0355 15.6023 14.081 15.8695 14.1667 16.1249C13.4961 16.4683 12.7534 16.6474 12 16.6474C11.2466 16.6474 10.5039 16.469 9.83333 16.1256ZM16.6667 17.2982C16.278 17.2982 15.898 17.183 15.5748 16.967C15.2516 16.7511 14.9997 16.4441 14.8509 16.085C14.7022 15.7259 14.6633 15.3307 14.7391 14.9495C14.8149 14.5683 15.0021 14.2181 15.277 13.9432C15.5518 13.6684 15.902 13.4812 16.2832 13.4053C16.6645 13.3295 17.0596 13.3684 17.4188 13.5172C17.7779 13.6659 18.0848 13.9178 18.3008 14.241C18.5167 14.5642 18.632 14.9442 18.632 15.3329C18.6315 15.854 18.4242 16.3536 18.0558 16.722C17.6873 17.0905 17.1877 17.2977 16.6667 17.2982Z" fill="white" stroke="white"/>
</svg>
