<svg width="62" height="62" viewBox="0 0 62 62" fill="none" xmlns="http://www.w3.org/2000/svg">
<rect width="62" height="62" rx="31" fill="#7CA7A7"/>
<rect width="62" height="62" rx="31" fill="black" fill-opacity="0.01"/>
<g clip-path="url(#clip0_4_4670)">
<path d="M31 17.4062C23.5 17.4062 17.4062 23.5 17.4062 31C17.4062 38.5 23.5 44.5938 31 44.5938C38.5 44.5938 44.5938 38.5 44.5938 31C44.5938 23.5 38.5 17.4062 31 17.4062ZM43.6562 30.5312H32.125H31.4688V18.3438C34.7969 18.4844 37.75 19.8438 39.9531 22.0469C42.1562 24.25 43.5156 27.2031 43.6562 30.5312ZM22.0469 22.0469C24.25 19.8438 27.2031 18.4844 30.5312 18.3438V30.5312H18.3438C18.4844 27.2031 19.8438 24.25 22.0469 22.0469ZM21.7188 39.625C19.75 37.4688 18.4844 34.6094 18.3438 31.4688H29.875L21.7188 39.625ZM39.9531 39.9531C37.6562 42.25 34.5156 43.6562 31 43.6562C27.6719 43.6562 24.6719 42.3906 22.375 40.2812L31.1875 31.4688H43.6562C43.5156 34.7969 42.1562 37.75 39.9531 39.9531Z" fill="white" stroke="white"/>
</g>
<defs>
<clipPath id="clip0_4_4670">
<rect width="30" height="30" fill="white" transform="translate(16 16)"/>
</clipPath>
</defs>
</svg>
