<svg width="24" height="24" viewBox="0 0 24 24" fill="none" xmlns="http://www.w3.org/2000/svg">
<rect width="24" height="24" rx="12" fill="#7DA9A9"/>
<rect width="24" height="24" rx="12" fill="black" fill-opacity="0.01"/>
<g clip-path="url(#clip0_18_11559)">
<path d="M10 9.99967H10.0067M14 13.9997H14.0067M14.6667 9.33301L9.33337 14.6663M18.6667 11.9997C18.6667 15.6815 15.6819 18.6663 12 18.6663C8.31814 18.6663 5.33337 15.6815 5.33337 11.9997C5.33337 8.31777 8.31814 5.33301 12 5.33301C15.6819 5.33301 18.6667 8.31777 18.6667 11.9997ZM10.3334 9.99967C10.3334 10.1838 10.1841 10.333 10 10.333C9.81595 10.333 9.66671 10.1838 9.66671 9.99967C9.66671 9.81558 9.81595 9.66634 10 9.66634C10.1841 9.66634 10.3334 9.81558 10.3334 9.99967ZM14.3334 13.9997C14.3334 14.1837 14.1841 14.333 14 14.333C13.816 14.333 13.6667 14.1837 13.6667 13.9997C13.6667 13.8156 13.816 13.6663 14 13.6663C14.1841 13.6663 14.3334 13.8156 14.3334 13.9997Z" stroke="white" stroke-width="1.5" stroke-linecap="round" stroke-linejoin="round"/>
</g>
<defs>
<clipPath id="clip0_18_11559">
<rect width="16" height="16" fill="white" transform="translate(4 4)"/>
</clipPath>
</defs>
</svg>
