<svg width="62" height="62" viewBox="0 0 62 62" fill="none" xmlns="http://www.w3.org/2000/svg">
<rect width="62" height="62" rx="31" fill="#7DA9A9"/>
<rect width="62" height="62" rx="31" fill="black" fill-opacity="0.01"/>
<path d="M27.25 27.25H27.2625M34.75 34.75H34.7625M36 26L26 36M43.5 31C43.5 37.9035 37.9035 43.5 31 43.5C24.0964 43.5 18.5 37.9035 18.5 31C18.5 24.0964 24.0964 18.5 31 18.5C37.9035 18.5 43.5 24.0964 43.5 31ZM27.875 27.25C27.875 27.5952 27.5952 27.875 27.25 27.875C26.9048 27.875 26.625 27.5952 26.625 27.25C26.625 26.9048 26.9048 26.625 27.25 26.625C27.5952 26.625 27.875 26.9048 27.875 27.25ZM35.375 34.75C35.375 35.0951 35.0951 35.375 34.75 35.375C34.4049 35.375 34.125 35.0951 34.125 34.75C34.125 34.4049 34.4049 34.125 34.75 34.125C35.0951 34.125 35.375 34.4049 35.375 34.75Z" stroke="white" stroke-width="1.5" stroke-linecap="round" stroke-linejoin="round"/>
</svg>
