<svg width="24" height="24" viewBox="0 0 24 24" fill="none" xmlns="http://www.w3.org/2000/svg">
<rect width="24" height="24" rx="12" fill="#7DA9A9"/>
<rect width="24" height="24" rx="12" fill="black" fill-opacity="0.01"/>
<g clip-path="url(#clip0_18_11568)">
<path d="M17.964 11.4665C17.9372 10.0677 17.4204 8.71294 16.4876 7.64694C15.3516 6.34774 13.7124 5.60254 11.9908 5.60254C10.2664 5.60254 8.62762 6.34614 7.49402 7.64254C6.55202 8.71974 6.04202 10.0909 6.02482 11.5029C4.85602 11.7029 3.99122 12.6793 3.97522 13.8705C3.97042 13.8873 3.96802 13.9049 3.96802 13.9225C3.96802 15.2885 5.06882 16.3997 6.42202 16.3997H8.23762C9.06002 17.6117 10.4484 18.3997 11.9908 18.3997C14.2496 18.3997 16.1812 16.7113 16.4824 14.4721L16.7856 12.2189C16.972 10.8357 16.5516 9.43974 15.6328 8.38934C14.714 7.33894 13.3868 6.73614 11.9912 6.73614C10.5956 6.73614 9.26802 7.33854 8.34962 8.38934C7.43122 9.44014 7.00962 10.8357 7.19602 12.2189L7.49922 14.4721C7.57282 15.0201 7.74562 15.5345 7.99522 15.9997H7.16762C6.97322 15.5625 6.83802 15.0829 6.76922 14.5705L6.46602 12.3181C6.44042 12.1285 6.42642 11.9389 6.42042 11.7497C6.43522 11.7185 6.44522 11.6849 6.44162 11.6477C6.43962 11.6241 6.43122 11.6025 6.42162 11.5825C6.42002 10.2389 6.89922 8.92974 7.79442 7.90614C8.85242 6.69654 10.3816 6.00294 11.9904 6.00294C13.5972 6.00294 15.1264 6.69814 16.1864 7.91054C17.0744 8.92574 17.558 10.2213 17.5644 11.5545C17.5548 11.5757 17.548 11.5997 17.546 11.6249C17.5428 11.6601 17.5496 11.6941 17.5632 11.7241C17.558 11.9253 17.542 12.1269 17.5152 12.3285L17.212 14.5929C17.13 15.2033 16.9692 15.7673 16.7816 16.1017C16.7472 16.1637 16.7476 16.2393 16.7836 16.3009C16.8196 16.3621 16.8852 16.3997 16.9564 16.3997H17.5784C18.9136 16.3997 20 15.2857 20 13.8937C20 12.6693 19.1384 11.6597 17.964 11.4665ZM7.89522 14.4185L7.59202 12.1657C7.42162 10.8969 7.80682 9.61654 8.65002 8.65294C9.49242 7.68934 10.71 7.13654 11.9908 7.13654C13.2716 7.13654 14.4888 7.68934 15.3316 8.65294C16.1744 9.61694 16.5596 10.8969 16.3896 12.1657L16.0864 14.4189C15.8108 16.4601 14.0504 17.9997 11.9908 17.9997C10.682 17.9997 9.49562 17.3769 8.73282 16.3997H10C10.0072 16.3997 10.0128 16.3965 10.0196 16.3957C10.1112 16.8533 10.5156 17.1997 11 17.1997H12.6C13.1516 17.1997 13.6 16.7509 13.6 16.1997C13.6 15.6485 13.1516 15.1997 12.6 15.1997H11C10.5156 15.1997 10.1112 15.5461 10.0196 16.0037C10.0128 16.0029 10.0072 15.9997 10 15.9997H8.45882C8.17162 15.5273 7.97282 14.9941 7.89522 14.4185ZM10.4 16.1997C10.4 15.8689 10.6692 15.5997 11 15.5997H12.6C12.9308 15.5997 13.2 15.8689 13.2 16.1997C13.2 16.5305 12.9308 16.7997 12.6 16.7997H11C10.6692 16.7997 10.4 16.5305 10.4 16.1997ZM6.73442 15.9997H6.42202C5.30042 15.9997 4.38562 15.0857 4.36842 13.9553C4.37242 13.9389 4.37482 13.9221 4.37482 13.9053C4.37482 12.9165 5.07482 12.0989 6.03282 11.9069C6.04162 12.0617 6.04922 12.2165 6.07002 12.3717L6.37322 14.6241C6.43842 15.1117 6.56162 15.5717 6.73442 15.9997ZM17.578 15.9997H17.2712C17.4192 15.6329 17.5404 15.1517 17.608 14.6461L17.9112 12.3817C17.9344 12.2117 17.95 12.0413 17.958 11.8717C18.9084 12.0577 19.6 12.8909 19.6 13.9165C19.6 15.0653 18.6928 15.9997 17.578 15.9997Z" fill="white" stroke="white" stroke-width="0.5"/>
</g>
<defs>
<clipPath id="clip0_18_11568">
<rect width="16" height="16" fill="white" transform="translate(4 4)"/>
</clipPath>
</defs>
</svg>
