<svg width="80" height="80" viewBox="0 0 80 80" fill="none" xmlns="http://www.w3.org/2000/svg">
<circle cx="40" cy="40" r="40" fill="url(#paint0_linear_12_5584)" fill-opacity="0.5"/>
<path d="M62.9435 40.4018C62.9435 46.2383 60.7297 52.0748 56.302 56.5024C47.4467 65.3578 33.1574 65.3578 24.302 56.5024C15.4467 47.6471 15.4467 33.3578 24.302 24.5024C32.5536 16.2509 45.8366 15.6471 54.692 22.8924L45.0316 32.5528C41.6102 30.5402 36.9813 30.9427 33.9624 33.9616C30.3398 37.5842 30.3398 43.2194 33.9624 46.8421C37.5851 50.4647 43.2203 50.4647 46.8429 46.8421C48.6542 45.0307 49.4593 42.8169 49.4593 40.4018H53.8869C53.8869 43.8232 52.4781 47.4458 49.8618 50.0622C44.6291 55.2949 35.975 55.2949 30.7423 50.0622C25.5096 44.8295 25.5096 35.9741 30.7423 30.7414C35.5725 25.9112 42.8178 25.5087 48.2517 29.3326L51.4718 26.1125C44.2266 20.4773 33.9624 21.0811 27.5222 27.5213C20.4781 34.5653 20.4781 46.037 27.5222 53.0811C34.5662 60.1251 46.0379 60.1251 53.0819 53.0811C56.7046 49.4584 58.3146 44.8295 58.3146 40.2006H62.9435V40.4018Z" fill="#5982DB"/>
<path d="M41.4088 35.9744C34.9686 35.1694 34.7673 41.6096 36.9812 43.6222C39.195 45.4335 41.6101 45.4335 43.4214 43.6222C44.6289 42.4147 45.0315 40.8046 44.6289 39.1946L57.912 25.9115C56.1006 24.1002 55.0944 23.0939 54.6918 22.6914L41.4088 35.9744Z" fill="#3367D6"/>
<path d="M21.4844 38.7916C24.3743 38.7916 26.7171 36.4488 26.7171 33.5589C26.7171 30.6689 24.3743 28.3262 21.4844 28.3262C18.5944 28.3262 16.2516 30.6689 16.2516 33.5589C16.2516 36.4488 18.5944 38.7916 21.4844 38.7916Z" fill="#3367D6"/>
<path d="M53.0819 61.3326C55.9718 61.3326 58.3146 58.9898 58.3146 56.0999C58.3146 53.2099 55.9718 50.8672 53.0819 50.8672C50.1919 50.8672 47.8492 53.2099 47.8492 56.0999C47.8492 58.9898 50.1919 61.3326 53.0819 61.3326Z" fill="#3367D6"/>
<path d="M37.9875 32.7542C40.0994 32.7542 41.8114 31.0422 41.8114 28.9303C41.8114 26.8185 40.0994 25.1064 37.9875 25.1064C35.8756 25.1064 34.1636 26.8185 34.1636 28.9303C34.1636 31.0422 35.8756 32.7542 37.9875 32.7542Z" fill="#3367D6"/>
<defs>
<linearGradient id="paint0_linear_12_5584" x1="29.5946" y1="9.364" x2="70.7744" y2="13.8916" gradientUnits="userSpaceOnUse">
<stop stop-color="#7DA9A9"/>
<stop offset="1" stop-color="#B4F2EE"/>
</linearGradient>
</defs>
</svg>
