<svg width="49" height="48" viewBox="0 0 49 48" fill="none" xmlns="http://www.w3.org/2000/svg">
<rect width="48" height="48" transform="translate(0.333252)" fill="white"/>
<circle cx="24.3333" cy="24" r="24" fill="#D8D8D8" fill-opacity="0.1"/>
<path d="M31.3488 16H17.3177C14.5649 16 12.3333 18.2276 12.3333 20.9755V27.9769C12.3333 30.7248 14.5649 32.9524 17.3177 32.9524H31.3488C34.1016 32.9524 36.3333 30.7248 36.3333 27.9769V20.9755C36.3333 18.2276 34.1016 16 31.3488 16ZM27.9778 24.8168L21.415 27.9412C21.2401 28.0245 21.0382 27.8972 21.0382 27.7038V21.2598C21.0382 21.0636 21.2455 20.9365 21.4207 21.0252L27.9835 24.3449C28.1786 24.4436 28.1752 24.7229 27.9778 24.8168Z" fill="#EAEBF1"/>
</svg>
