<svg width="62" height="62" viewBox="0 0 62 62" fill="none" xmlns="http://www.w3.org/2000/svg">
<rect width="62" height="62" rx="31" fill="#7DA9A9"/>
<rect width="62" height="62" rx="31" fill="black" fill-opacity="0.01"/>
<path d="M31 27.8044C31.6048 27.8044 32.0988 28.2971 32.0988 28.902C32.0988 29.4539 32.5474 29.9012 33.0993 29.9012C33.65 29.9012 34.0985 29.4539 34.0985 28.902C34.0985 27.5461 33.2152 26.402 31.9992 25.9836V25.4166C31.9992 24.8659 31.5519 24.4161 31 24.4161C30.4468 24.4161 29.9995 24.8659 29.9995 25.4166V25.9836C28.7835 26.402 27.9027 27.5461 27.9027 28.902C27.9027 30.6119 29.2913 32.0005 31 32.0005C31.6048 32.0005 32.0988 32.4945 32.0988 33.0993C32.0988 33.7054 31.6048 34.1981 31 34.1981C30.3952 34.1981 29.9025 33.7054 29.9025 33.0993C29.9025 32.5474 29.4539 32.0988 28.902 32.0988C28.3488 32.0988 27.9027 32.5474 27.9027 33.0993C27.9027 34.4551 28.7835 35.598 29.9995 36.0164V36.5834C29.9995 37.1366 30.4468 37.5852 31 37.5852C31.5519 37.5852 31.9992 37.1366 31.9992 36.5834V36.0164C33.2152 35.598 34.0985 34.4551 34.0985 33.0993C34.0985 31.3906 32.7087 30.0008 31 30.0008C30.3952 30.0008 29.9025 29.5081 29.9025 28.902C29.9025 28.2971 30.3952 27.8044 31 27.8044ZM39.3783 36.5532C39.8684 36.8115 40.472 36.6237 40.7291 36.1373C41.5607 34.566 41.9992 32.7893 41.9992 31C41.9992 24.9365 37.0635 20.002 31 20.002C24.9352 20.002 20.0008 24.9365 20.0008 31C20.0008 37.0648 24.9352 41.9992 31 41.9992C32.7629 41.9992 34.5144 41.5733 36.0655 40.7656C36.5557 40.5123 36.746 39.9062 36.4914 39.4173C36.2369 38.9297 35.6333 38.7356 35.1419 38.9914C33.8579 39.6618 32.463 40.0008 31 40.0008C26.0378 40.0008 21.9992 35.9635 21.9992 31C21.9992 26.0391 26.0378 22.0005 31 22.0005C35.9622 22.0005 40.0008 26.0391 40.0008 31C40.0008 32.4655 39.6404 33.9183 38.9624 35.2011C38.7029 35.69 38.8894 36.2949 39.3783 36.5532ZM31 16C28.1031 16 25.2906 16.8291 22.8674 18.3954C22.4025 18.6953 22.2702 19.314 22.5701 19.7777C22.8712 20.2414 23.4874 20.3725 23.9536 20.0751C26.0504 18.7193 28.4899 18.001 31 18.001C38.1686 18.001 43.999 23.8327 43.999 31C43.999 38.1686 38.1686 44.0003 31 44.0003C23.8314 44.0003 17.9997 38.1686 17.9997 31C17.9997 28.5139 18.7041 26.0958 20.0386 24.0103C20.3359 23.5441 20.1998 22.9254 19.7336 22.628C19.2686 22.3306 18.6499 22.4667 18.3538 22.9317C16.814 25.3397 16 28.1321 16 31C16 39.2724 22.7276 46 31 46C39.2712 46 46 39.2724 46 31C46 22.7301 39.2712 16 31 16Z" fill="white" stroke="white" stroke-width="0.236232"/>
</svg>
