<svg width="62" height="62" viewBox="0 0 62 62" fill="none" xmlns="http://www.w3.org/2000/svg">
<rect width="62" height="62" rx="31" fill="#7DA9A9"/>
<rect width="62" height="62" rx="31" fill="black" fill-opacity="0.01"/>
<path d="M40.8774 32.4508C41.1884 30.4599 40.881 28.4215 39.9967 26.6109C39.1124 24.8003 37.6937 23.3046 35.9324 22.3258C35.9324 22.2996 35.9399 22.2758 35.9399 22.2496C35.9399 20.9394 35.4194 19.6829 34.493 18.7565C33.5666 17.83 32.3101 17.3096 30.9999 17.3096C29.6897 17.3096 28.4332 17.83 27.5068 18.7565C26.5803 19.6829 26.0599 20.9394 26.0599 22.2496C26.0599 22.2746 26.0674 22.2996 26.0674 22.3246C24.3058 23.3034 22.887 24.7993 22.0027 26.6102C21.1184 28.4211 20.8111 30.4597 21.1224 32.4508C20.3322 32.6343 19.5995 33.0099 18.9892 33.5442C18.3788 34.0785 17.9097 34.7551 17.6233 35.514C17.3369 36.273 17.2421 37.0908 17.3473 37.8952C17.4525 38.6995 17.7545 39.4655 18.2264 40.1252C18.6984 40.785 19.3258 41.3182 20.053 41.6775C20.7803 42.0369 21.5849 42.2113 22.3957 42.1854C23.2064 42.1595 23.9983 41.9341 24.7011 41.529C25.4039 41.124 25.996 40.5519 26.4249 39.8633C27.8355 40.6061 29.4057 40.9943 30.9999 40.9943C32.5941 40.9943 34.1643 40.6061 35.5749 39.8633C36.0039 40.5512 36.596 41.1227 37.2986 41.5272C38.0012 41.9317 38.7927 42.1567 39.603 42.1823C40.4133 42.208 41.2175 42.0334 41.9442 41.6742C42.671 41.3149 43.298 40.782 43.7697 40.1226C44.2413 39.4632 44.5432 38.6977 44.6485 37.8939C44.7537 37.09 44.6592 36.2726 44.3732 35.514C44.0872 34.7554 43.6186 34.079 43.0088 33.5447C42.3991 33.0104 41.667 32.6347 40.8774 32.4508ZM30.9999 18.5633C31.7287 18.5633 32.4411 18.7794 33.047 19.1843C33.653 19.5891 34.1253 20.1646 34.4043 20.8378C34.6832 21.5111 34.7563 22.252 34.6142 22.9668C34.4721 23.6816 34.1212 24.3382 33.606 24.8536C33.0908 25.369 32.4343 25.72 31.7196 25.8624C31.0048 26.0047 30.2639 25.9319 29.5906 25.6532C28.9172 25.3745 28.3416 24.9023 27.9365 24.2965C27.5315 23.6907 27.3151 22.9783 27.3149 22.2496C27.3159 21.2726 27.7044 20.3358 28.3953 19.645C29.0862 18.9541 30.0229 18.5643 30.9999 18.5633ZM22.2499 40.9358C21.5211 40.9358 20.8087 40.7197 20.2027 40.3149C19.5968 39.91 19.1245 39.3346 18.8455 38.6613C18.5666 37.988 18.4935 37.2472 18.6356 36.5324C18.7777 35.8176 19.1285 35.161 19.6438 34.6456C20.159 34.1302 20.8155 33.7791 21.5302 33.6368C22.245 33.4945 22.9858 33.5672 23.6592 33.846C24.3326 34.1247 24.9082 34.5968 25.3132 35.2026C25.7183 35.8085 25.9346 36.5208 25.9349 37.2496C25.9339 38.2266 25.5453 39.1633 24.8545 39.8542C24.1636 40.545 23.2269 40.9348 22.2499 40.9358ZM26.9374 38.7358C27.0982 38.2565 27.1834 37.7551 27.1899 37.2496C27.1876 35.9591 26.6804 34.7208 25.7768 33.7995C24.8733 32.8782 23.645 32.347 22.3549 32.3196C22.2854 31.8829 22.2486 31.4417 22.2449 30.9996C22.2452 29.5326 22.6157 28.0894 23.3218 26.8035C24.028 25.5177 25.0471 24.4307 26.2849 23.6433C26.58 24.6657 27.1995 25.5645 28.0499 26.2042C28.9004 26.8439 29.9357 27.1898 30.9999 27.1898C32.0641 27.1898 33.0994 26.8439 33.9498 26.2042C34.8003 25.5645 35.4198 24.6657 35.7149 23.6433C36.9526 24.4307 37.9718 25.5177 38.6779 26.8035C39.3841 28.0894 39.7545 29.5326 39.7549 30.9996C39.7512 31.4417 39.7144 31.8829 39.6449 32.3196C38.3547 32.347 37.1265 32.8782 36.223 33.7995C35.3194 34.7208 34.8122 35.9591 34.8099 37.2496C34.8165 37.7547 34.9017 38.2557 35.0624 38.7346C33.805 39.3785 32.4126 39.7143 30.9999 39.7143C29.5872 39.7143 28.1948 39.3797 26.9374 38.7358ZM39.7499 40.9346C39.0211 40.9346 38.3086 40.7184 37.7026 40.3135C37.0966 39.9086 36.6243 39.3331 36.3454 38.6598C36.0665 37.9864 35.9935 37.2455 36.1357 36.5307C36.2779 35.8158 36.6288 35.1592 37.1442 34.6439C37.6596 34.1285 38.3162 33.7776 39.031 33.6354C39.7458 33.4932 40.4867 33.5662 41.1601 33.8451C41.8334 34.124 42.4089 34.5963 42.8139 35.2023C43.2188 35.8083 43.4349 36.5207 43.4349 37.2496C43.4339 38.2266 43.0453 39.1633 42.3545 39.8542C41.6636 40.545 40.7269 40.9336 39.7499 40.9346Z" fill="white" stroke="white"/>
</svg>
