<svg width="63" height="62" viewBox="0 0 63 62" fill="none" xmlns="http://www.w3.org/2000/svg">
<rect x="0.169678" width="62" height="62" rx="31" fill="#7DA9A9"/>
<rect x="0.169678" width="62" height="62" rx="31" fill="black" fill-opacity="0.01"/>
<g clip-path="url(#clip0_4_4679)">
<path d="M42.3521 29.9999C42.3019 27.3771 41.3329 24.8369 39.5839 22.8381C37.4539 20.4021 34.3804 19.0049 31.1524 19.0049C27.9191 19.0049 24.8464 20.3991 22.7209 22.8299C20.9546 24.8496 19.9984 27.4206 19.9661 30.0681C17.7746 30.4431 16.1531 32.2739 16.1231 34.5074C16.1141 34.5389 16.1096 34.5719 16.1096 34.6049C16.1096 37.1661 18.1736 39.2496 20.7109 39.2496H24.1151C25.6571 41.5221 28.2604 42.9996 31.1524 42.9996C35.3876 42.9996 39.0094 39.8339 39.5741 35.6354L40.1426 31.4106C40.4921 28.8171 39.7039 26.1996 37.9811 24.2301C36.2584 22.2606 33.7699 21.1304 31.1531 21.1304C28.5364 21.1304 26.0471 22.2599 24.3251 24.2301C22.6031 26.2004 21.8126 28.8171 22.1621 31.4106L22.7306 35.6354C22.8686 36.6629 23.1926 37.6274 23.6606 38.4996H22.1089C21.7444 37.6799 21.4909 36.7806 21.3619 35.8199L20.7934 31.5966C20.7454 31.2411 20.7191 30.8856 20.7079 30.5309C20.7356 30.4724 20.7544 30.4094 20.7476 30.3396C20.7439 30.2954 20.7281 30.2549 20.7101 30.2174C20.7071 27.6981 21.6056 25.2434 23.2841 23.3241C25.2679 21.0561 28.1351 19.7556 31.1516 19.7556C34.1644 19.7556 37.0316 21.0591 39.0191 23.3324C40.6841 25.2359 41.5909 27.6651 41.6029 30.1649C41.5849 30.2046 41.5721 30.2496 41.5684 30.2969C41.5624 30.3629 41.5751 30.4266 41.6006 30.4829C41.5909 30.8601 41.5609 31.2381 41.5106 31.6161L40.9421 35.8619C40.7884 37.0064 40.4869 38.0639 40.1351 38.6909C40.0706 38.8071 40.0714 38.9489 40.1389 39.0644C40.2064 39.1791 40.3294 39.2496 40.4629 39.2496H41.6291C44.1326 39.2496 46.1696 37.1609 46.1696 34.5509C46.1696 32.2551 44.5541 30.3621 42.3521 29.9999ZM23.4731 35.5349L22.9046 31.3109C22.5851 28.9319 23.3074 26.5311 24.8884 24.7244C26.4679 22.9176 28.7509 21.8811 31.1524 21.8811C33.5539 21.8811 35.8361 22.9176 37.4164 24.7244C38.9966 26.5319 39.7189 28.9319 39.4001 31.3109L38.8316 35.5356C38.3149 39.3629 35.0141 42.2496 31.1524 42.2496C28.6984 42.2496 26.4739 41.0819 25.0436 39.2496H27.4196C27.4331 39.2496 27.4436 39.2436 27.4564 39.2421C27.6281 40.1001 28.3864 40.7496 29.2946 40.7496H32.2946C33.3289 40.7496 34.1696 39.9081 34.1696 38.8746C34.1696 37.8411 33.3289 36.9996 32.2946 36.9996H29.2946C28.3864 36.9996 27.6281 37.6491 27.4564 38.5071C27.4436 38.5056 27.4331 38.4996 27.4196 38.4996H24.5299C23.9914 37.6139 23.6186 36.6141 23.4731 35.5349ZM28.1696 38.8746C28.1696 38.2544 28.6744 37.7496 29.2946 37.7496H32.2946C32.9149 37.7496 33.4196 38.2544 33.4196 38.8746C33.4196 39.4949 32.9149 39.9996 32.2946 39.9996H29.2946C28.6744 39.9996 28.1696 39.4949 28.1696 38.8746ZM21.2966 38.4996H20.7109C18.6079 38.4996 16.8926 36.7859 16.8604 34.6664C16.8679 34.6356 16.8724 34.6041 16.8724 34.5726C16.8724 32.7186 18.1849 31.1856 19.9811 30.8256C19.9976 31.1159 20.0119 31.4061 20.0509 31.6971L20.6194 35.9204C20.7416 36.8346 20.9726 37.6971 21.2966 38.4996ZM41.6284 38.4996H41.0531C41.3306 37.8119 41.5579 36.9096 41.6846 35.9616L42.2531 31.7159C42.2966 31.3971 42.3259 31.0776 42.3409 30.7596C44.1229 31.1084 45.4196 32.6706 45.4196 34.5936C45.4196 36.7476 43.7186 38.4996 41.6284 38.4996Z" fill="white" stroke="white" stroke-width="0.75"/>
</g>
<defs>
<clipPath id="clip0_4_4679">
<rect width="30" height="30" fill="white" transform="translate(16.1697 16)"/>
</clipPath>
</defs>
</svg>
