<svg width="120" height="61" viewBox="0 0 120 61" fill="none" xmlns="http://www.w3.org/2000/svg">
<g id="Group 1157">
<path id="Vector" d="M76.7406 14.2015C76.6598 13.9513 76.5025 13.733 76.2912 13.5777C76.0799 13.4224 75.8253 13.3379 75.5635 13.3363H63.7996L60.1645 2.09036C60.0015 1.59151 59.5318 1.23242 58.9813 1.23242C58.4308 1.23242 57.9624 1.59175 57.7982 2.09168L54.1618 13.3363H42.4004C41.8777 13.3388 41.3924 13.6749 41.2222 14.2015C41.1411 14.452 41.1406 14.7218 41.2208 14.9726C41.301 15.2233 41.4578 15.4423 41.6689 15.5984L51.1848 22.5483L47.5496 33.7929C47.471 34.044 47.4727 34.3135 47.5543 34.5636C47.6359 34.8137 47.7935 35.0318 48.0047 35.1873C48.4514 35.5138 49.0407 35.498 49.4654 35.1921L58.9813 28.2422L68.4973 35.1921C68.9223 35.498 69.5113 35.5137 69.958 35.1873C70.1698 35.0322 70.3276 34.8141 70.4093 34.5638C70.491 34.3136 70.4923 34.0438 70.4131 33.7928L66.778 22.5483L76.2938 15.5984C76.5049 15.4423 76.6617 15.2233 76.7419 14.9726C76.8221 14.7218 76.8217 14.452 76.7406 14.2015Z" fill="#42527B"/>
<path id="Vector_2" d="M76.7408 13.4828C76.6599 13.2325 76.5026 13.0143 76.2913 12.8589C76.08 12.7036 75.8254 12.6192 75.5636 12.6175H63.7997L60.1645 1.37161C60.0015 0.872883 59.5318 0.513672 58.9813 0.513672C58.4308 0.513672 57.9624 0.872883 57.7982 1.37281L54.1618 12.6174H42.4004C41.8777 12.6199 41.3924 12.956 41.2222 13.4827C41.1411 13.7331 41.1406 14.0029 41.2208 14.2537C41.301 14.5045 41.4578 14.7234 41.6689 14.8795L51.1848 21.8294L47.5496 33.0741C47.471 33.3252 47.4727 33.5947 47.5543 33.8448C47.636 34.0948 47.7935 34.3129 48.0047 34.4684C48.4514 34.7949 49.0407 34.7791 49.4654 34.4733L58.9813 27.5233L68.4973 34.4732C68.9223 34.7791 69.5113 34.7948 69.958 34.4684C70.1698 34.3133 70.3277 34.0952 70.4093 33.845C70.491 33.5947 70.4923 33.3249 70.4131 33.0739L66.778 21.8294L76.2938 14.8795C76.5049 14.7234 76.6617 14.5045 76.7419 14.2537C76.8221 14.0029 76.8216 13.7331 76.7405 13.4827" fill="white"/>
<path id="Vector_3" d="M49.0906 33.368C49.0499 33.3979 49.0009 33.414 48.9505 33.414C48.9002 33.414 48.8511 33.3979 48.8105 33.368C48.7236 33.3051 48.6886 33.2067 48.72 33.1108L52.5012 21.4087L42.6063 14.1832C42.5658 14.1538 42.5358 14.1121 42.5206 14.0643C42.5054 14.0165 42.5059 13.9651 42.5219 13.9175C42.5363 13.8693 42.5658 13.827 42.606 13.7971C42.6463 13.7671 42.6951 13.751 42.7452 13.7513H54.9763L58.7552 2.06126C58.7706 2.01299 58.8009 1.97089 58.8417 1.94101C58.8825 1.91114 58.9316 1.89504 58.9821 1.89502C59.0882 1.89502 59.1764 1.96538 59.209 2.06126L62.9867 13.7513H75.2191C75.3192 13.7513 75.4134 13.8156 75.446 13.9175C75.4616 13.9653 75.4617 14.0169 75.446 14.0647C75.4304 14.1126 75.3999 14.1541 75.3591 14.1832L65.4616 21.4087L69.243 33.106C69.2731 33.2031 69.2393 33.3051 69.1535 33.3681C69.1129 33.398 69.0638 33.4141 69.0135 33.4141C68.9631 33.4141 68.9141 33.398 68.8734 33.3681L58.9821 26.1404L49.0906 33.368Z" fill="#42527B"/>
<path id="Vector_4" d="M30.8284 32.1232V29.8176H30.3782V29.0736H32.1203V29.8176H31.6494V32.1232H30.8284ZM33.9269 30.4852C34.1429 30.4852 34.26 30.2946 34.26 30.0968C34.26 29.8298 34.0994 29.7158 33.8749 29.7291V30.4814L33.9269 30.4852ZM34.3254 32.1235L33.8702 30.8541L33.8618 30.8614C33.8667 31.0107 33.875 31.1613 33.875 31.3104V32.1235H33.054V29.0738H33.846C34.5584 29.0738 35.0727 29.2838 35.0727 30.0883C35.0727 30.4245 34.929 30.723 34.6031 30.8541L35.214 32.1235H34.3254ZM37.1251 31.0841L37.037 30.3766C37.0129 30.1861 36.9972 29.9919 36.9779 29.8014H36.9682C36.9453 29.9919 36.9248 30.1861 36.8921 30.3766L36.7799 31.0841H37.1251ZM37.2821 32.1229L37.2217 31.7308H36.6712L36.6024 32.1229H35.7573L36.4853 29.0732H37.4874L38.1308 32.1229H37.2821ZM39.7052 31.3873C40.0794 31.3836 40.1434 30.914 40.1434 30.6263C40.1434 30.2951 40.0793 29.8339 39.7052 29.8339V31.3873ZM38.8843 29.0743H39.5447C40.4779 29.0743 40.9802 29.664 40.9802 30.5863C40.9802 31.9942 40.1001 32.1226 39.6002 32.1226H38.8843V29.0743ZM41.8977 29.0737H43.4226V29.7933H42.7187V30.2181H43.3501V30.9376H42.7187V31.4025H43.4226V32.1234H41.8977V29.0737ZM76.4421 32.1232L76.366 30.2058H76.3576C76.3213 30.4279 76.2936 30.6512 76.2538 30.8733L76.0208 32.1232H75.352L75.0659 30.2058H75.0585C75.0538 30.4328 75.0585 30.6549 75.0465 30.8816L74.9777 32.1231H74.0963L74.4501 29.0735H75.4727L75.7069 30.6948H75.7141C75.7383 30.5054 75.7589 30.3186 75.7938 30.1293L75.9918 29.0735H77.0011L77.2957 32.1231H76.4421V32.1232ZM79.1985 31.0841L79.1103 30.3766C79.0863 30.1861 79.0705 29.9919 79.05 29.8014H79.0415C79.0175 29.9919 78.9981 30.1861 78.9655 30.3766L78.8533 31.0841H79.1985ZM79.3555 32.1229L79.295 31.7308H78.7446L78.6758 32.1229H77.8307L78.5598 29.0732H79.5607L80.2041 32.1229H79.3555ZM81.79 30.4852C82.0073 30.4852 82.1245 30.2946 82.1245 30.0968C82.1245 29.8298 81.9628 29.7158 81.7382 29.7291V30.4814L81.79 30.4852ZM82.1884 32.1235L81.7334 30.8541L81.726 30.8614C81.7297 31.0107 81.7382 31.1613 81.7382 31.3104V32.1235H80.9172V29.0738H81.7092C82.4227 29.0738 82.9371 29.2838 82.9371 30.0883C82.9371 30.4245 82.7921 30.723 82.4662 30.8541L83.0771 32.1235H82.1884ZM86.0507 29.0737L85.3952 30.5457L86.1268 32.1234H85.2467L84.736 30.723H84.7312V32.1234H83.9103V29.0737H84.7312V30.3721H84.736L85.1852 29.0737H86.0507ZM22.8596 52.485C22.53 51.5687 22.7931 48.7692 24.3276 48.2414C25.9418 47.6845 26.9341 48.5204 27.4159 50.1563C27.5957 50.763 27.5558 51.4038 27.3591 51.643C27.073 51.9925 26.5623 52.1999 26.1023 52.3565L24.8938 52.7583C23.7059 53.1646 23.1385 53.246 22.8596 52.485ZM30.4836 55.8806C29.6988 56.6707 28.6799 57.4544 27.6766 57.7749C26.7313 58.0807 24.0366 58.3173 23.2434 56.0807C23.0719 55.5954 23.2108 55.4461 23.6479 55.3162C24.2974 55.1221 25.9732 54.627 27.7407 53.9607C29.3452 53.3589 30.7758 52.6197 31.2249 52.3188C32.0277 51.7897 32.146 51.0446 31.7935 50.2424C30.6683 47.6978 28.1197 45.034 23.8845 45.8435C20.5185 46.4889 18.1076 49.535 18.1076 53.019C18.1076 57.3343 20.6949 59.856 23.9859 60.6388C27.0295 61.3656 30.6067 59.8828 32.1375 57.3902C32.7448 56.4302 31.0353 55.2909 30.4836 55.8806ZM62.2834 52.485C62.0877 51.9366 62.101 50.7157 62.4716 49.7099C62.7239 49.0337 63.0959 48.5047 63.7513 48.2414C64.4891 47.9429 65.1204 48.0242 65.6142 48.3104C66.1792 48.637 66.5825 49.2838 66.8395 50.1562C67.0183 50.7629 66.9796 51.4037 66.7828 51.6429C66.4942 51.9924 66.0487 52.167 65.5248 52.3564C65.1248 52.4996 64.7223 52.6356 64.3175 52.7642C63.1224 53.1405 62.5623 53.246 62.2834 52.485ZM69.905 55.8806C69.1226 56.6707 68.1025 57.4544 67.1016 57.7749C66.1551 58.0807 63.4592 58.3173 62.6673 56.0807C62.4958 55.5954 62.6358 55.4461 63.0718 55.3162C63.7213 55.1221 65.3971 54.627 67.1645 53.9607C68.769 53.3589 70.2009 52.6197 70.6476 52.3188C71.4516 51.7897 71.5699 51.0446 71.2173 50.2424C70.091 47.6978 67.5447 45.034 63.3083 45.8435C59.9424 46.4889 57.5315 49.535 57.5315 53.019C57.5315 57.3343 60.1176 59.856 63.4098 60.6388C66.4522 61.3656 70.0306 59.8828 71.5615 57.3902C72.1686 56.4302 70.4591 55.2909 69.905 55.8806ZM92.3372 52.485C92.1393 51.9366 92.1549 50.7157 92.5255 49.7099C92.7778 49.0337 93.1497 48.5047 93.8052 48.2414C94.5429 47.9429 95.1742 48.0242 95.6681 48.3104C96.233 48.637 96.6351 49.2838 96.8934 50.1562C97.0708 50.7629 97.0335 51.4037 96.8356 51.6429C96.5495 51.9924 96.1039 52.167 95.5788 52.3564C95.1784 52.4994 94.7755 52.6354 94.3703 52.7642C93.1739 53.1405 92.6161 53.246 92.3372 52.485ZM99.9588 55.8806C99.1777 56.6707 98.1564 57.4544 97.1531 57.7749C96.2091 58.0807 93.5132 58.3173 92.72 56.0807C92.5497 55.5954 92.6897 55.4461 93.1255 55.3162C93.775 55.1221 95.4495 54.627 97.2182 53.9607C98.8215 53.3589 100.255 52.6197 100.701 52.3188C101.504 51.7897 101.622 51.0446 101.271 50.2424C100.145 47.6978 97.5973 45.034 93.3621 45.8435C89.995 46.4889 87.5853 49.535 87.5853 53.019C87.5853 57.3343 90.1713 59.856 93.4636 60.6388C96.506 61.3656 100.083 59.8828 101.614 57.3902C102.221 56.4302 100.513 55.2909 99.9588 55.8806ZM7.11956 51.3511C7.00588 51.3511 6.89687 51.3966 6.81651 51.4774C6.73615 51.5582 6.69101 51.6678 6.69101 51.7821L6.6922 56.669C6.69697 57.4272 6.924 57.9346 7.33562 58.1178C7.55777 58.2173 8.04188 58.4418 8.3159 58.5656C8.5043 58.6518 8.51145 58.8446 8.48367 59.0924C8.45958 59.3132 8.39555 59.9431 8.37147 60.1748C8.34619 60.4271 8.15051 60.5339 7.77025 60.5339H0.732914C0.376742 60.5339 0.15579 60.471 0.125622 60.1748C0.101416 59.943 0.0361913 59.278 0.0121047 59.0573C-0.0193748 58.7768 0.0373837 58.6324 0.210044 58.5523C0.445544 58.4418 0.958517 58.2124 1.18078 58.1082C1.6178 57.9044 1.80369 57.3097 1.80369 56.6847L1.8025 44.6014C1.80131 43.9268 1.61291 43.382 1.12402 43.1538C0.901878 43.0506 0.438271 42.8394 0.212548 42.7315C0.0254596 42.6416 -0.0253369 42.4682 0.0109123 42.2219C0.0422726 42.0009 0.0942614 41.6236 0.125622 41.3918C0.165448 41.098 0.376742 41.0339 0.732914 41.0339H7.44306C7.80042 41.0339 8.00444 41.098 8.04546 41.3918C8.07682 41.6236 8.12881 42.0009 8.16017 42.2219C8.19642 42.4682 8.14813 42.6382 7.96581 42.7365C7.72673 42.8661 7.39119 43.0555 7.1762 43.1733C6.88644 43.3323 6.69685 43.6612 6.69208 44.4402L6.69089 47.962C6.69078 48.0186 6.70178 48.0748 6.72326 48.1271C6.74475 48.1795 6.77629 48.2271 6.81609 48.2672C6.85589 48.3074 6.90317 48.3392 6.95522 48.3609C7.00727 48.3827 7.06307 48.3939 7.11944 48.3939H10.8766C10.933 48.394 10.9888 48.3829 11.0409 48.3612C11.093 48.3395 11.1404 48.3076 11.1802 48.2675C11.22 48.2274 11.2515 48.1797 11.273 48.1273C11.2944 48.0748 11.3054 48.0187 11.3051 47.962L11.3039 44.4402C11.2991 43.6612 11.1096 43.3323 10.821 43.1733C10.605 43.0556 10.2705 42.8663 10.0314 42.7365C9.84909 42.6382 9.79961 42.4682 9.83574 42.2219C9.86722 42.0009 9.91909 41.6236 9.95045 41.3918C9.99147 41.098 10.1967 41.0339 10.5529 41.0339H17.263C17.6192 41.0339 17.8305 41.098 17.8715 41.3918C17.9028 41.6236 17.9535 42.0009 17.9862 42.2219C18.0211 42.4682 17.9716 42.6416 17.7846 42.7315C17.5575 42.8394 17.0939 43.0506 16.8718 43.1538C16.3841 43.382 16.1957 43.9268 16.1945 44.6014L16.1933 56.6847C16.1933 57.3097 16.378 57.9044 16.815 58.1082C17.0372 58.2124 17.5514 58.4418 17.7868 58.5523C17.9595 58.6324 18.015 58.7768 17.9849 59.0573C17.9607 59.278 17.8944 59.9431 17.8714 60.1748C17.8412 60.471 17.619 60.5339 17.2629 60.5339H10.2259C9.84564 60.5339 9.64996 60.4271 9.62468 60.1748C9.60048 59.943 9.53656 59.3132 9.51236 59.0924C9.48577 58.8447 9.49185 58.6518 9.68132 58.5656C9.95426 58.4418 10.4384 58.2173 10.6617 58.1178C11.0721 57.9346 11.2992 57.4272 11.3039 56.669L11.3051 51.7821C11.3052 51.7255 11.2942 51.6694 11.2727 51.6171C11.2512 51.5647 11.2197 51.5172 11.1798 51.4772C11.14 51.4371 11.0928 51.4054 11.0407 51.3837C10.9887 51.3621 10.9329 51.351 10.8766 51.3511H7.11956Z" fill="#42527B"/>
<path id="Vector_5" d="M82.5439 50.9613C82.5439 50.9613 85.0926 55.5956 85.7878 56.8687C86.3168 57.8359 86.9107 58.104 87.716 58.5651C87.9236 58.6828 87.9864 58.7606 87.949 59.1524C87.9212 59.4546 87.8741 59.917 87.8512 60.1574C87.8186 60.4922 87.5819 60.5336 87.2512 60.5336H83.4941C83.0185 60.5336 82.8325 60.4342 82.6634 60.1259C82.4823 59.7958 79.341 54.0508 79.341 54.0508L78.1566 55.1878V56.7729C78.1626 57.4997 78.4958 57.9705 78.8205 58.1527C79.0307 58.2704 79.3494 58.4488 79.6053 58.5906C79.8021 58.6999 79.8165 58.8383 79.79 59.1489C79.7707 59.3685 79.7104 59.9425 79.6875 60.1754C79.6609 60.4326 79.487 60.5335 79.085 60.5335H72.8312C72.4739 60.5335 72.2506 60.4714 72.2203 60.1754C72.1962 59.9425 72.1371 59.3261 72.113 59.1063C72.0827 58.8295 72.131 58.6889 72.3121 58.587C72.575 58.4376 72.8386 58.2895 73.1029 58.1427C73.4108 57.9716 73.6607 57.5081 73.6607 56.7496V44.4762C73.6582 43.6266 73.3384 43.2408 73.0897 43.101C72.9146 43.0016 72.4075 42.7188 72.2917 42.6521C72.1167 42.5526 72.0828 42.3608 72.1167 42.1253C72.148 41.9069 72.1867 41.623 72.2192 41.3912C72.2614 41.0829 72.4619 41.0333 72.8265 41.0333H77.343C77.7269 41.0333 78.1555 41.3184 78.1555 41.8573L78.1567 51.2354C78.1567 51.2354 80.6908 48.9406 81.0651 48.6032C81.3319 48.3618 81.256 48.1046 81.1062 48.0341C80.8466 47.9128 80.5569 47.7841 80.3939 47.7101C80.2139 47.6276 80.1222 47.5306 80.1524 47.2322C80.1826 46.9494 80.2322 46.4929 80.2527 46.2758C80.2793 45.9942 80.3746 45.8788 80.8358 45.8788H86.3555C86.7021 45.8788 86.8193 45.9992 86.8422 46.2272C86.8663 46.487 86.9291 47.0256 86.9533 47.2855C86.9725 47.4928 86.8289 47.6129 86.5246 47.7246C85.7254 48.0184 85.379 48.2259 84.2996 49.2744C83.6245 49.9297 82.5439 50.9613 82.5439 50.9613ZM38.8614 56.7954C38.8675 57.5222 39.1077 57.9701 39.4337 58.1522C39.6947 58.2992 39.9562 58.4452 40.2184 58.5902C40.4139 58.6995 40.4297 58.839 40.4019 59.1484C40.3838 59.3692 40.3234 59.9432 40.3004 60.1749C40.2738 60.4333 40.0988 60.5342 39.698 60.5342H33.443C33.0868 60.5342 32.8659 60.4711 32.8357 60.1749C32.8003 59.8184 32.7636 59.462 32.7259 59.1058C32.6957 58.8302 32.7452 58.6895 32.925 58.5863C33.1877 58.4377 33.4509 58.2901 33.7146 58.1435C34.0225 57.9711 34.2736 57.5088 34.2736 56.7492L34.2725 49.8707C34.2713 48.9472 34.0008 48.5152 33.7038 48.3465C33.5274 48.247 33.28 48.104 33.1629 48.0372C32.9782 47.9316 32.948 47.7531 32.9818 47.519C33.0132 47.3006 33.0614 46.9317 33.094 46.6999C33.1338 46.4061 33.3451 46.342 33.7013 46.342H38.4411C38.4962 46.3419 38.5508 46.3528 38.6017 46.374C38.6527 46.3953 38.6989 46.4264 38.7378 46.4656C38.7768 46.5049 38.8076 46.5514 38.8285 46.6027C38.8495 46.6539 38.8602 46.7088 38.86 46.7642L38.8614 56.7954ZM36.2005 40.6388C34.8133 40.6388 33.6904 41.7286 33.6904 43.0732C33.6904 44.4179 34.8133 45.5077 36.2005 45.5077C37.5852 45.5077 38.7093 44.4179 38.7093 43.0732C38.7093 41.7286 37.5852 40.6388 36.2005 40.6388ZM55.1698 49.8767C55.1698 47.3513 54.0313 46.3878 52.713 45.9642C51.1905 45.4774 49.3532 46.2783 48.4102 46.7165C48.1611 46.8323 47.9143 46.9532 47.6702 47.0793C47.4264 46.5041 47.2971 46.3415 46.9362 46.3415H42.4776C42.1215 46.3415 41.9102 46.4059 41.8703 46.6994C41.8378 46.9312 41.7895 47.3001 41.758 47.5185C41.7243 47.7528 41.7533 47.9312 41.9391 48.0368C42.055 48.1035 42.3038 48.2479 42.4788 48.3474C42.7769 48.5147 43.0463 48.9469 43.0487 49.8704L43.0499 56.7487C43.0499 57.5086 42.7987 57.9709 42.4909 58.1432C42.2266 58.2892 41.9633 58.4372 41.7013 58.5873C41.5201 58.6894 41.4706 58.83 41.502 59.1067C41.5262 59.3263 41.5877 59.943 41.6118 60.1747C41.6408 60.4708 41.863 60.5338 42.2191 60.5338H48.4729C48.8737 60.5338 49.0489 60.4331 49.0753 60.1747C49.0982 59.9429 49.1587 59.3689 49.1779 59.148C49.2045 58.8385 49.19 58.7002 48.9932 58.5897C48.7306 58.4456 48.469 58.2996 48.2085 58.1517C47.804 57.9211 47.6349 57.3216 47.6349 56.7768L47.6374 51.3098C47.6374 49.8814 48.3304 49.0794 49.2817 48.9616C49.9143 48.8815 50.7256 49.2734 50.7256 50.3984V57.7633C50.7256 59.8603 52.4991 60.6649 53.8911 60.6649C55.3653 60.6649 56.6233 59.9841 57.1858 58.7997C57.3646 58.4246 57.146 58.1395 56.9638 57.9368C56.7549 57.705 56.5666 57.4989 56.2261 57.6737C55.8905 57.8472 55.5379 58.1822 55.335 58.0694C55.184 57.9868 55.1696 57.8533 55.1696 57.5256V49.8767H55.1698ZM115.894 49.8767C115.894 47.3513 114.755 46.3878 113.437 45.9642C111.914 45.4774 110.077 46.2783 109.134 46.7165C108.751 46.8938 108.394 47.0793 108.394 47.0793C108.151 46.5041 108.021 46.3415 107.66 46.3415H103.201C102.845 46.3415 102.634 46.4059 102.593 46.6994C102.561 46.9312 102.513 47.3001 102.482 47.5185C102.447 47.7528 102.477 47.9312 102.662 48.0368C102.779 48.1035 103.026 48.2479 103.204 48.3474C103.501 48.5147 103.771 48.9469 103.772 49.8704L103.774 56.7487C103.774 57.5086 103.522 57.9709 103.213 58.1432C102.95 58.2895 102.687 58.4375 102.425 58.5873C102.244 58.6894 102.195 58.83 102.226 59.1067C102.249 59.3263 102.312 59.943 102.336 60.1747C102.366 60.4708 102.587 60.5338 102.943 60.5338H109.197C109.599 60.5338 109.773 60.4331 109.799 60.1747C109.822 59.9429 109.883 59.3689 109.903 59.148C109.928 58.8385 109.914 58.7002 109.717 58.5897C109.455 58.4456 109.193 58.2996 108.932 58.1517C108.527 57.9211 108.359 57.3216 108.359 56.7768L108.361 51.3098C108.361 49.8814 109.054 49.0794 110.006 48.9616C110.638 48.8815 111.45 49.2734 111.45 50.3984V57.7633C111.45 59.8603 113.223 60.6649 114.615 60.6649C116.089 60.6649 117.347 59.9841 117.911 58.7997C118.087 58.4246 117.87 58.1395 117.686 57.9368C117.479 57.705 117.291 57.4989 116.951 57.6737C116.613 57.8472 116.261 58.1822 116.059 58.0694C115.909 57.9868 115.894 57.8533 115.894 57.5256L115.894 49.8767ZM116.842 41.3556C116.842 41.1142 116.591 41.0292 116.382 41.0292H115.9V41.7172H116.448C116.682 41.7173 116.842 41.5621 116.842 41.3556ZM117.505 42.7487C117.553 43.0741 117.698 43.3082 117.777 43.4793C117.445 43.4793 117.321 43.4781 117.036 43.4781C116.895 43.1591 116.863 42.9441 116.792 42.7234C116.695 42.4017 116.496 42.3069 116.151 42.3069H115.895V43.478H115.213V40.4818H116.639C116.971 40.4818 117.544 40.6796 117.544 41.3166C117.544 41.7172 117.323 41.9938 117.1 42.0788C117.346 42.2417 117.455 42.4273 117.505 42.7487ZM118.557 42.085C118.557 40.857 117.573 39.8667 116.358 39.8667C115.133 39.8667 114.141 40.857 114.141 42.085C114.141 43.3094 115.133 44.3045 116.358 44.3045C117.573 44.3045 118.557 43.3094 118.557 42.085ZM119.121 42.085C119.121 43.62 117.88 44.864 116.358 44.864C114.827 44.864 113.583 43.62 113.583 42.085C113.583 40.5449 114.827 39.3011 116.358 39.3047C117.88 39.3012 119.121 40.545 119.121 42.085Z" fill="#42527B"/>
</g>
</svg>
