<svg width="282" height="61" viewBox="0 0 282 61" fill="none" xmlns="http://www.w3.org/2000/svg">
<path d="M281.044 27.7966V22.8284H274.906V15.1049L274.699 15.1688L268.934 16.9418L268.821 16.9765V22.8287H259.722V19.5685C259.722 18.0505 260.059 16.8888 260.725 16.1141C261.386 15.3486 262.331 14.9595 263.537 14.9595C264.404 14.9595 265.301 15.1647 266.204 15.5694L266.431 15.6711V10.439L266.324 10.3996C265.481 10.0952 264.336 9.94189 262.915 9.94189C261.125 9.94189 259.498 10.3335 258.08 11.1096C256.66 11.8868 255.544 12.9963 254.761 14.4069C253.982 15.8159 253.586 17.4433 253.586 19.2442V22.8284H249.313V27.7966H253.586V48.7264H259.722V27.7966H268.821V41.0971C268.821 46.5749 271.391 49.3508 276.461 49.3508C277.294 49.3508 278.171 49.2527 279.066 49.0606C279.977 48.8633 280.598 48.6663 280.963 48.4558L281.044 48.4078V43.3937L280.794 43.5596C280.461 43.7826 280.047 43.9649 279.561 44.1004C279.072 44.2384 278.665 44.3075 278.349 44.3075C277.161 44.3075 276.283 43.9859 275.737 43.3511C275.186 42.7105 274.906 41.5904 274.906 40.0234V27.7966H281.044ZM235.611 44.3084C233.385 44.3084 231.629 43.5661 230.392 42.1041C229.147 40.6347 228.516 38.5398 228.516 35.8781C228.516 33.132 229.147 30.9827 230.392 29.4873C231.63 28.0018 233.369 27.2478 235.561 27.2478C237.689 27.2478 239.382 27.9679 240.595 29.3892C241.814 30.8179 242.433 32.95 242.433 35.7281C242.433 38.5404 241.851 40.7006 240.704 42.1457C239.565 43.5798 237.851 44.3084 235.611 44.3084ZM235.884 22.2045C231.636 22.2045 228.261 23.4559 225.855 25.9238C223.451 28.392 222.232 31.8077 222.232 36.0768C222.232 40.1316 223.422 43.3932 225.769 45.7693C228.116 48.1462 231.311 49.3503 235.263 49.3503C239.381 49.3503 242.688 48.0815 245.093 45.5794C247.498 43.08 248.716 39.6966 248.716 35.5272C248.716 31.409 247.573 28.1231 245.317 25.7629C243.061 23.4015 239.886 22.2045 235.884 22.2045ZM212.34 22.2045C209.45 22.2045 207.059 22.9476 205.233 24.4126C203.396 25.8864 202.464 27.8192 202.464 30.1582C202.464 31.374 202.665 32.454 203.061 33.37C203.459 34.289 204.075 35.0982 204.894 35.7773C205.707 36.4509 206.961 37.1565 208.624 37.8744C210.021 38.4524 211.063 38.9412 211.725 39.3266C212.372 39.7042 212.831 40.0838 213.091 40.4536C213.343 40.8154 213.47 41.3105 213.47 41.9216C213.47 43.6615 212.174 44.5081 209.507 44.5081C208.518 44.5081 207.389 44.3004 206.153 43.8911C204.925 43.4879 203.767 42.8975 202.718 42.1405L202.463 41.9568V47.8943L202.557 47.938C203.425 48.3408 204.519 48.6805 205.809 48.9477C207.097 49.2153 208.267 49.3514 209.283 49.3514C212.419 49.3514 214.945 48.6048 216.787 47.131C218.642 45.6471 219.581 43.6686 219.581 41.2488C219.581 39.5031 219.076 38.0061 218.078 36.7988C217.088 35.6013 215.369 34.5019 212.971 33.5301C211.061 32.7595 209.837 32.1198 209.333 31.6287C208.846 31.1543 208.599 30.4834 208.599 29.6338C208.599 28.8806 208.904 28.2773 209.53 27.7886C210.161 27.2976 211.039 27.0478 212.141 27.0478C213.163 27.0478 214.209 27.2101 215.249 27.5282C216.289 27.8463 217.202 28.2723 217.964 28.7935L218.214 28.9656V23.3334L218.118 23.2919C217.415 22.9888 216.488 22.7295 215.362 22.5191C214.241 22.31 213.224 22.2045 212.34 22.2045ZM186.469 44.3084C184.243 44.3084 182.487 43.5661 181.25 42.1041C180.005 40.6347 179.375 38.5404 179.375 35.8781C179.375 33.132 180.005 30.9827 181.251 29.4873C182.488 28.0018 184.227 27.2478 186.42 27.2478C188.547 27.2478 190.24 27.9679 191.454 29.3892C192.673 30.8179 193.291 32.95 193.291 35.7281C193.291 38.5404 192.709 40.7006 191.562 42.1457C190.423 43.5798 188.71 44.3084 186.469 44.3084ZM186.743 22.2045C182.493 22.2045 179.119 23.4559 176.714 25.9238C174.31 28.392 173.09 31.8077 173.09 36.0768C173.09 40.1333 174.28 43.3932 176.628 45.7693C178.975 48.1462 182.169 49.3503 186.121 49.3503C190.239 49.3503 193.547 48.0815 195.952 45.5794C198.356 43.08 199.575 39.6966 199.575 35.5272C199.575 31.409 198.432 28.1231 196.175 25.7629C193.918 23.4015 190.744 22.2045 186.743 22.2045ZM163.777 27.3134V22.8284H157.716V48.7258H163.777V35.4783C163.777 33.2257 164.285 31.3751 165.287 29.9773C166.277 28.5962 167.596 27.8963 169.207 27.8963C169.753 27.8963 170.366 27.9868 171.029 28.1658C171.686 28.3437 172.162 28.5369 172.442 28.7402L172.697 28.9257V22.7842L172.599 22.7418C172.035 22.5008 171.236 22.3792 170.226 22.3792C168.703 22.3792 167.34 22.8711 166.173 23.8395C165.148 24.6908 164.407 25.858 163.841 27.3134H163.777ZM146.863 22.2045C144.082 22.2045 141.602 22.8038 139.493 23.9852C137.379 25.1693 135.744 26.8598 134.632 29.0094C133.525 31.1537 132.963 33.6586 132.963 36.452C132.963 38.8989 133.508 41.1444 134.585 43.1234C135.663 45.1058 137.189 46.6566 139.12 47.7322C141.049 48.8065 143.278 49.3511 145.746 49.3511C148.626 49.3511 151.085 48.7723 153.057 47.6308L153.136 47.5849V42.0038L152.882 42.1908C151.989 42.8447 150.991 43.3667 149.917 43.7427C148.845 44.1184 147.869 44.3084 147.013 44.3084C144.634 44.3084 142.725 43.5604 141.34 42.0858C139.951 40.6093 139.247 38.536 139.247 35.927C139.247 33.3017 139.981 31.1751 141.428 29.6059C142.871 28.0414 144.784 27.2478 147.113 27.2478C149.105 27.2478 151.046 27.9258 152.882 29.2649L153.136 29.4504V23.5698L153.054 23.5234C152.363 23.1345 151.421 22.8134 150.25 22.5699C149.085 22.327 147.946 22.2045 146.863 22.2045ZM128.789 22.8287H122.728V48.7258H128.789V22.8287ZM125.82 11.7963C124.823 11.7963 123.953 12.1377 123.238 12.814C122.52 13.4923 122.156 14.3463 122.156 15.3541C122.156 16.3461 122.516 17.1845 123.227 17.8447C123.933 18.503 124.806 18.8367 125.821 18.8367C126.835 18.8367 127.711 18.503 128.426 17.8458C129.145 17.1845 129.51 16.3464 129.51 15.3541C129.51 14.3815 129.155 13.5363 128.455 12.8413C127.756 12.1478 126.869 11.7963 125.82 11.7963ZM110.699 20.918V48.7258H116.884V12.5891H108.324L97.4429 39.4304L86.8837 12.5891H77.9749V48.7256H83.7871V20.9152H83.9867L95.1369 48.7258H99.5232L110.499 20.918H110.699Z" fill="#42527B"/>
<path d="M28.5106 29.1714H0.000244141V0.513672H28.5106V29.1714Z" fill="#42527B"/>
<path d="M59.9893 29.1714H31.4795V0.513672H59.9893V29.1714Z" fill="#42527B"/>
<path d="M28.5098 60.824H0.000244141V32.1665H28.5098V60.824Z" fill="#42527B"/>
<path d="M59.9893 60.824H31.4795V32.1665H59.9893V60.824Z" fill="#42527B"/>
</svg>
